<svg viewBox="0 0 16 16" xmlns="http://www.w3.org/2000/svg">
  <path d="M16 14.8H14.848C14.7334 14.8066 14.62 14.7727 14.528 14.704C14.4476 14.6374 14.3845 14.5523 14.344 14.456L13.6 12.4H9.6L8.8 14.432C8.76183 14.5252 8.7014 14.6076 8.624 14.672C8.53489 14.7477 8.42086 14.7876 8.304 14.784H7.2L10.84 5.608H12.352L16 14.8ZM13.176 11.352L11.912 8C11.7896 7.67541 11.6854 7.34423 11.6 7.008C11.552 7.20533 11.5013 7.38933 11.448 7.56L11.296 8.008L10.032 11.36L13.176 11.352ZM8.136 10.088C7.3174 9.80713 6.53574 9.42839 5.808 8.96C6.92928 7.75569 7.70577 6.27179 8.056 4.664H9.6V3.6H5.848C5.80586 3.4469 5.75238 3.29716 5.688 3.152C5.496 2.632 5.28 2 5.28 2L4.104 2.4C4.104 2.4 4.424 3.112 4.584 3.6H0V4.664H1.72C2.07056 6.27839 2.85947 7.76486 4 8.96C2.76396 9.72812 1.41383 10.2952 0 10.64C0.298667 11.0773 0.530667 11.4453 0.696 11.744C2.16616 11.2511 3.56902 10.5766 4.872 9.736C5.75723 10.3272 6.7143 10.8031 7.72 11.152L8.136 10.088ZM2.904 4.664H6.832C6.57676 6.02994 5.88971 7.27785 4.872 8.224C3.89142 7.24817 3.20883 6.0134 2.904 4.664Z" />
</svg>
