<svg viewBox="0 0 1411 360" fill="none" xmlns="http://www.w3.org/2000/svg">
<path opacity="0.8" d="M111.954 69.0385H153.561L167.43 55.2308M264.515 0L236.776 27.6154H222.907M209.038 41.4231H222.907L195.169 69.0385M195.169 41.4231L181.299 55.2308V69.0385M167.43 41.4231L195.169 13.8077M111.954 82.8462H125.823L139.692 69.0385M84.2151 82.7774L56.4768 110.393L56.4768 138.077M111.954 96.6539L84.2151 124.269M111.954 124.269L125.823 138.077M139.692 124.269L111.954 151.885M125.823 110.462H167.846L195.585 82.8462M125.823 110.462C125.823 112.257 124.366 113.776 122.494 113.776M125.823 110.462C125.823 108.667 124.297 107.148 122.494 107.148M98.0843 138.077L70.3459 165.692V138.077M28.7384 151.885L1 179.5L14.8692 193.308H42.6076M28.7384 165.692H56.4768L98.0843 207.115M70.3459 179.5H97.7376L125.476 207.115M42.6076 220.923L70.3459 248.538V220.923M84.2151 262.346L98.0843 248.538M84.2151 234.731L125.823 276.154M153.769 22.5063C152.452 23.818 152.452 25.9582 153.769 27.2009C155.087 28.5126 157.236 28.5126 158.485 27.2009M176.583 331.385C177.901 332.696 180.051 332.696 181.299 331.385M181.299 331.385C182.547 330.073 182.616 327.933 181.299 326.69M181.299 331.385L209.038 359H222.907M153.561 41.4231L139.692 55.2308V41.4231L153.561 27.6154M98.0843 96.6539H125.823M265 345.192L237.262 317.577H167.43M167.43 345.192L111.954 289.962V262.346M14.8692 179.5H42.6076L56.4768 193.308M84.2151 220.923H98.0843L125.823 248.538M125.823 262.346H139.692V234.731M125.823 220.923L111.954 234.731M153.561 248.538L167.43 262.346V289.962M153.561 262.346V303.769H181.299M49.5422 151.885C49.5422 155.698 46.4374 158.788 42.6076 158.788C38.7777 158.788 35.673 155.698 35.673 151.885C35.673 148.072 38.7777 144.981 42.6076 144.981C46.4374 144.981 49.5422 148.072 49.5422 151.885ZM215.972 27.6154C215.972 31.4283 212.868 34.5192 209.038 34.5192C205.208 34.5192 202.103 31.4283 202.103 27.6154C202.103 23.8025 205.208 20.7115 209.038 20.7115C212.868 20.7115 215.972 23.8025 215.972 27.6154ZM160.496 82.8462C160.496 86.659 157.391 89.75 153.561 89.75C149.731 89.75 146.626 86.659 146.626 82.8462C146.626 79.0333 149.731 75.9423 153.561 75.9423C157.391 75.9423 160.496 79.0333 160.496 82.8462ZM63.4113 207.115C63.4113 210.928 60.3066 214.019 56.4768 214.019C52.6469 214.019 49.5422 210.928 49.5422 207.115C49.5422 203.303 52.6469 200.212 56.4768 200.212C60.3066 200.212 63.4113 203.303 63.4113 207.115ZM202.103 303.769C202.103 307.582 198.999 310.673 195.169 310.673C191.339 310.673 188.234 307.582 188.234 303.769C188.234 299.956 191.339 296.865 195.169 296.865C198.999 296.865 202.103 299.956 202.103 303.769ZM146.626 289.962C146.626 293.774 143.522 296.865 139.692 296.865C135.862 296.865 132.757 293.774 132.757 289.962C132.757 286.149 135.862 283.058 139.692 283.058C143.522 283.058 146.626 286.149 146.626 289.962Z" stroke="url(#paint0_linear_39_7033)" style="" stroke-miterlimit="10"/>
<path opacity="0.6" d="M255.954 69.0385H297.561L311.43 55.2308M408.515 0L380.776 27.6154H366.907M353.038 41.4231H366.907L339.169 69.0385M339.169 41.4231L325.299 55.2308V69.0385M311.43 41.4231L339.169 13.8077M255.954 82.8462H269.823L283.692 69.0385M228.215 82.7774L200.477 110.393V138.077M255.954 96.6539L228.215 124.269M255.954 124.269L269.823 138.077M283.692 124.269L255.954 151.885M269.823 110.462H311.846L339.585 82.8462M269.823 110.462C269.823 112.257 268.366 113.776 266.494 113.776M269.823 110.462C269.823 108.667 268.297 107.148 266.494 107.148M242.084 138.077L214.346 165.692V138.077M172.738 151.885L145 179.5L158.869 193.308H186.608M172.738 165.692H200.477L242.084 207.115M214.346 179.5H241.738L269.476 207.115M186.608 220.923L214.346 248.538V220.923M228.215 262.346L242.084 248.538M228.215 234.731L269.823 276.154M297.769 22.5063C296.452 23.818 296.452 25.9582 297.769 27.2009C299.087 28.5126 301.236 28.5126 302.485 27.2009M320.583 331.385C321.901 332.696 324.051 332.696 325.299 331.385M325.299 331.385C326.547 330.073 326.616 327.933 325.299 326.69M325.299 331.385L353.038 359H366.907M297.561 41.4231L283.692 55.2308V41.4231L297.561 27.6154M242.084 96.6539H269.823M409 345.192L381.262 317.577H311.43M311.43 345.192L255.954 289.962V262.346M158.869 179.5H186.608L200.477 193.308M228.215 220.923H242.084L269.823 248.538M269.823 262.346H283.692V234.731M269.823 220.923L255.954 234.731M297.561 248.538L311.43 262.346V289.962M297.561 262.346V303.769H325.299M193.542 151.885C193.542 155.698 190.437 158.788 186.608 158.788C182.778 158.788 179.673 155.698 179.673 151.885C179.673 148.072 182.778 144.981 186.608 144.981C190.437 144.981 193.542 148.072 193.542 151.885ZM359.972 27.6154C359.972 31.4283 356.868 34.5192 353.038 34.5192C349.208 34.5192 346.103 31.4283 346.103 27.6154C346.103 23.8025 349.208 20.7115 353.038 20.7115C356.868 20.7115 359.972 23.8025 359.972 27.6154ZM304.496 82.8462C304.496 86.659 301.391 89.75 297.561 89.75C293.731 89.75 290.626 86.659 290.626 82.8462C290.626 79.0333 293.731 75.9423 297.561 75.9423C301.391 75.9423 304.496 79.0333 304.496 82.8462ZM207.411 207.115C207.411 210.928 204.307 214.019 200.477 214.019C196.647 214.019 193.542 210.928 193.542 207.115C193.542 203.303 196.647 200.212 200.477 200.212C204.307 200.212 207.411 203.303 207.411 207.115ZM346.103 303.769C346.103 307.582 342.999 310.673 339.169 310.673C335.339 310.673 332.234 307.582 332.234 303.769C332.234 299.956 335.339 296.865 339.169 296.865C342.999 296.865 346.103 299.956 346.103 303.769ZM290.626 289.962C290.626 293.774 287.522 296.865 283.692 296.865C279.862 296.865 276.757 293.774 276.757 289.962C276.757 286.149 279.862 283.058 283.692 283.058C287.522 283.058 290.626 286.149 290.626 289.962Z" stroke="url(#paint1_linear_39_7033)" style="" stroke-miterlimit="10"/>
<path opacity="0.4" d="M399.954 69.0385H441.561L455.43 55.2308M552.515 0L524.776 27.6154H510.907M497.038 41.4231H510.907L483.169 69.0385M483.169 41.4231L469.299 55.2308V69.0385M455.43 41.4231L483.169 13.8077M399.954 82.8462H413.823L427.692 69.0385M372.215 82.7774L344.477 110.393V138.077M399.954 96.6539L372.215 124.269M399.954 124.269L413.823 138.077M427.692 124.269L399.954 151.885M413.823 110.462H455.846L483.585 82.8462M413.823 110.462C413.823 112.257 412.366 113.776 410.494 113.776M413.823 110.462C413.823 108.667 412.297 107.148 410.494 107.148M386.084 138.077L358.346 165.692V138.077M316.738 151.885L289 179.5L302.869 193.308H330.608M316.738 165.692H344.477L386.084 207.115M358.346 179.5H385.738L413.476 207.115M330.608 220.923L358.346 248.538V220.923M372.215 262.346L386.084 248.538M372.215 234.731L413.823 276.154M441.769 22.5063C440.452 23.818 440.452 25.9582 441.769 27.2009C443.087 28.5126 445.236 28.5126 446.485 27.2009M464.583 331.385C465.901 332.696 468.051 332.696 469.299 331.385M469.299 331.385C470.547 330.073 470.616 327.933 469.299 326.69M469.299 331.385L497.038 359H510.907M441.561 41.4231L427.692 55.2308V41.4231L441.561 27.6154M386.084 96.6539H413.823M553 345.192L525.262 317.577H455.43M455.43 345.192L399.954 289.962V262.346M302.869 179.5H330.608L344.477 193.308M372.215 220.923H386.084L413.823 248.538M413.823 262.346H427.692V234.731M413.823 220.923L399.954 234.731M441.561 248.538L455.43 262.346V289.962M441.561 262.346V303.769H469.299M337.542 151.885C337.542 155.698 334.437 158.788 330.608 158.788C326.778 158.788 323.673 155.698 323.673 151.885C323.673 148.072 326.778 144.981 330.608 144.981C334.437 144.981 337.542 148.072 337.542 151.885ZM503.972 27.6154C503.972 31.4283 500.868 34.5192 497.038 34.5192C493.208 34.5192 490.103 31.4283 490.103 27.6154C490.103 23.8025 493.208 20.7115 497.038 20.7115C500.868 20.7115 503.972 23.8025 503.972 27.6154ZM448.496 82.8462C448.496 86.659 445.391 89.75 441.561 89.75C437.731 89.75 434.626 86.659 434.626 82.8462C434.626 79.0333 437.731 75.9423 441.561 75.9423C445.391 75.9423 448.496 79.0333 448.496 82.8462ZM351.411 207.115C351.411 210.928 348.307 214.019 344.477 214.019C340.647 214.019 337.542 210.928 337.542 207.115C337.542 203.303 340.647 200.212 344.477 200.212C348.307 200.212 351.411 203.303 351.411 207.115ZM490.103 303.769C490.103 307.582 486.999 310.673 483.169 310.673C479.339 310.673 476.234 307.582 476.234 303.769C476.234 299.956 479.339 296.865 483.169 296.865C486.999 296.865 490.103 299.956 490.103 303.769ZM434.626 289.962C434.626 293.774 431.522 296.865 427.692 296.865C423.862 296.865 420.757 293.774 420.757 289.962C420.757 286.149 423.862 283.058 427.692 283.058C431.522 283.058 434.626 286.149 434.626 289.962Z" stroke="url(#paint2_linear_39_7033)" style="" stroke-miterlimit="10"/>
<path opacity="0.2" d="M543.954 69.0385H585.561L599.43 55.2308M696.515 0L668.776 27.6154H654.907M641.038 41.4231H654.907L627.169 69.0385M627.169 41.4231L613.299 55.2308V69.0385M599.43 41.4231L627.169 13.8077M543.954 82.8462H557.823L571.692 69.0385M516.215 82.7774L488.477 110.393V138.077M543.954 96.6539L516.215 124.269M543.954 124.269L557.823 138.077M571.692 124.269L543.954 151.885M557.823 110.462H599.846L627.585 82.8462M557.823 110.462C557.823 112.257 556.366 113.776 554.494 113.776M557.823 110.462C557.823 108.667 556.297 107.148 554.494 107.148M530.084 138.077L502.346 165.692V138.077M460.738 151.885L433 179.5L446.869 193.308H474.608M460.738 165.692H488.477L530.084 207.115M502.346 179.5H529.738L557.476 207.115M474.608 220.923L502.346 248.538V220.923M516.215 262.346L530.084 248.538M516.215 234.731L557.823 276.154M585.769 22.5063C584.452 23.818 584.452 25.9582 585.769 27.2009C587.087 28.5126 589.236 28.5126 590.485 27.2009M608.583 331.385C609.901 332.696 612.051 332.696 613.299 331.385M613.299 331.385C614.547 330.073 614.616 327.933 613.299 326.69M613.299 331.385L641.038 359H654.907M585.561 41.4231L571.692 55.2308V41.4231L585.561 27.6154M530.084 96.6539H557.823M697 345.192L669.262 317.577H599.43M599.43 345.192L543.954 289.962V262.346M446.869 179.5H474.608L488.477 193.308M516.215 220.923H530.084L557.823 248.538M557.823 262.346H571.692V234.731M557.823 220.923L543.954 234.731M585.561 248.538L599.43 262.346V289.962M585.561 262.346V303.769H613.299M481.542 151.885C481.542 155.698 478.437 158.788 474.608 158.788C470.778 158.788 467.673 155.698 467.673 151.885C467.673 148.072 470.778 144.981 474.608 144.981C478.437 144.981 481.542 148.072 481.542 151.885ZM647.972 27.6154C647.972 31.4283 644.868 34.5192 641.038 34.5192C637.208 34.5192 634.103 31.4283 634.103 27.6154C634.103 23.8025 637.208 20.7115 641.038 20.7115C644.868 20.7115 647.972 23.8025 647.972 27.6154ZM592.496 82.8462C592.496 86.659 589.391 89.75 585.561 89.75C581.731 89.75 578.626 86.659 578.626 82.8462C578.626 79.0333 581.731 75.9423 585.561 75.9423C589.391 75.9423 592.496 79.0333 592.496 82.8462ZM495.411 207.115C495.411 210.928 492.307 214.019 488.477 214.019C484.647 214.019 481.542 210.928 481.542 207.115C481.542 203.303 484.647 200.212 488.477 200.212C492.307 200.212 495.411 203.303 495.411 207.115ZM634.103 303.769C634.103 307.582 630.999 310.673 627.169 310.673C623.339 310.673 620.234 307.582 620.234 303.769C620.234 299.956 623.339 296.865 627.169 296.865C630.999 296.865 634.103 299.956 634.103 303.769ZM578.626 289.962C578.626 293.774 575.522 296.865 571.692 296.865C567.862 296.865 564.757 293.774 564.757 289.962C564.757 286.149 567.862 283.058 571.692 283.058C575.522 283.058 578.626 286.149 578.626 289.962Z" stroke="url(#paint3_linear_39_7033)" style="" stroke-miterlimit="10"/>
<path opacity="0.8" d="M1299.05 69.0385H1257.44L1243.57 55.2308M1146.49 0L1174.22 27.6154H1188.09M1201.96 41.4231H1188.09L1215.83 69.0385M1215.83 41.4231L1229.7 55.2308V69.0385M1243.57 41.4231L1215.83 13.8077M1299.05 82.8462H1285.18L1271.31 69.0385M1326.78 82.7774L1354.52 110.393V138.077M1299.05 96.6539L1326.78 124.269M1299.05 124.269L1285.18 138.077M1271.31 124.269L1299.05 151.885M1285.18 110.462H1243.15L1215.42 82.8462M1285.18 110.462C1285.18 112.257 1286.63 113.776 1288.51 113.776M1285.18 110.462C1285.18 108.667 1286.7 107.148 1288.51 107.148M1312.92 138.077L1340.65 165.692V138.077M1382.26 151.885L1410 179.5L1396.13 193.308H1368.39M1382.26 165.692H1354.52L1312.92 207.115M1340.65 179.5H1313.26L1285.52 207.115M1368.39 220.923L1340.65 248.538V220.923M1326.78 262.346L1312.92 248.538M1326.78 234.731L1285.18 276.154M1257.23 22.5063C1258.55 23.818 1258.55 25.9582 1257.23 27.2009C1255.91 28.5126 1253.76 28.5126 1252.52 27.2009M1234.42 331.385C1233.1 332.696 1230.95 332.696 1229.7 331.385M1229.7 331.385C1228.45 330.073 1228.38 327.933 1229.7 326.69M1229.7 331.385L1201.96 359H1188.09M1257.44 41.4231L1271.31 55.2308V41.4231L1257.44 27.6154M1312.92 96.6539H1285.18M1146 345.192L1173.74 317.577H1243.57M1243.57 345.192L1299.05 289.962V262.346M1396.13 179.5H1368.39L1354.52 193.308M1326.78 220.923H1312.92L1285.18 248.538M1285.18 262.346H1271.31V234.731M1285.18 220.923L1299.05 234.731M1257.44 248.538L1243.57 262.346V289.962M1257.44 262.346V303.769H1229.7M1361.46 151.885C1361.46 155.698 1364.56 158.788 1368.39 158.788C1372.22 158.788 1375.33 155.698 1375.33 151.885C1375.33 148.072 1372.22 144.981 1368.39 144.981C1364.56 144.981 1361.46 148.072 1361.46 151.885ZM1195.03 27.6154C1195.03 31.4283 1198.13 34.5192 1201.96 34.5192C1205.79 34.5192 1208.9 31.4283 1208.9 27.6154C1208.9 23.8025 1205.79 20.7115 1201.96 20.7115C1198.13 20.7115 1195.03 23.8025 1195.03 27.6154ZM1250.5 82.8462C1250.5 86.659 1253.61 89.75 1257.44 89.75C1261.27 89.75 1264.37 86.659 1264.37 82.8462C1264.37 79.0333 1261.27 75.9423 1257.44 75.9423C1253.61 75.9423 1250.5 79.0333 1250.5 82.8462ZM1347.59 207.115C1347.59 210.928 1350.69 214.019 1354.52 214.019C1358.35 214.019 1361.46 210.928 1361.46 207.115C1361.46 203.303 1358.35 200.212 1354.52 200.212C1350.69 200.212 1347.59 203.303 1347.59 207.115ZM1208.9 303.769C1208.9 307.582 1212 310.673 1215.83 310.673C1219.66 310.673 1222.77 307.582 1222.77 303.769C1222.77 299.956 1219.66 296.865 1215.83 296.865C1212 296.865 1208.9 299.956 1208.9 303.769ZM1264.37 289.962C1264.37 293.774 1267.48 296.865 1271.31 296.865C1275.14 296.865 1278.24 293.774 1278.24 289.962C1278.24 286.149 1275.14 283.058 1271.31 283.058C1267.48 283.058 1264.37 286.149 1264.37 289.962Z" stroke="url(#paint4_linear_39_7033)" style="" stroke-miterlimit="10"/>
<path opacity="0.6" d="M1155.05 69.0385H1113.44L1099.57 55.2308M1002.49 0L1030.22 27.6154H1044.09M1057.96 41.4231H1044.09L1071.83 69.0385M1071.83 41.4231L1085.7 55.2308V69.0385M1099.57 41.4231L1071.83 13.8077M1155.05 82.8462H1141.18L1127.31 69.0385M1182.78 82.7774L1210.52 110.393V138.077M1155.05 96.6539L1182.78 124.269M1155.05 124.269L1141.18 138.077M1127.31 124.269L1155.05 151.885M1141.18 110.462H1099.15L1071.42 82.8462M1141.18 110.462C1141.18 112.257 1142.63 113.776 1144.51 113.776M1141.18 110.462C1141.18 108.667 1142.7 107.148 1144.51 107.148M1168.92 138.077L1196.65 165.692V138.077M1238.26 151.885L1266 179.5L1252.13 193.308H1224.39M1238.26 165.692H1210.52L1168.92 207.115M1196.65 179.5H1169.26L1141.52 207.115M1224.39 220.923L1196.65 248.538V220.923M1182.78 262.346L1168.92 248.538M1182.78 234.731L1141.18 276.154M1113.23 22.5063C1114.55 23.818 1114.55 25.9582 1113.23 27.2009C1111.91 28.5126 1109.76 28.5126 1108.52 27.2009M1090.42 331.385C1089.1 332.696 1086.95 332.696 1085.7 331.385M1085.7 331.385C1084.45 330.073 1084.38 327.933 1085.7 326.69M1085.7 331.385L1057.96 359H1044.09M1113.44 41.4231L1127.31 55.2308V41.4231L1113.44 27.6154M1168.92 96.6539H1141.18M1002 345.192L1029.74 317.577H1099.57M1099.57 345.192L1155.05 289.962V262.346M1252.13 179.5H1224.39L1210.52 193.308M1182.78 220.923H1168.92L1141.18 248.538M1141.18 262.346H1127.31V234.731M1141.18 220.923L1155.05 234.731M1113.44 248.538L1099.57 262.346V289.962M1113.44 262.346V303.769H1085.7M1217.46 151.885C1217.46 155.698 1220.56 158.788 1224.39 158.788C1228.22 158.788 1231.33 155.698 1231.33 151.885C1231.33 148.072 1228.22 144.981 1224.39 144.981C1220.56 144.981 1217.46 148.072 1217.46 151.885ZM1051.03 27.6154C1051.03 31.4283 1054.13 34.5192 1057.96 34.5192C1061.79 34.5192 1064.9 31.4283 1064.9 27.6154C1064.9 23.8025 1061.79 20.7115 1057.96 20.7115C1054.13 20.7115 1051.03 23.8025 1051.03 27.6154ZM1106.5 82.8462C1106.5 86.659 1109.61 89.75 1113.44 89.75C1117.27 89.75 1120.37 86.659 1120.37 82.8462C1120.37 79.0333 1117.27 75.9423 1113.44 75.9423C1109.61 75.9423 1106.5 79.0333 1106.5 82.8462ZM1203.59 207.115C1203.59 210.928 1206.69 214.019 1210.52 214.019C1214.35 214.019 1217.46 210.928 1217.46 207.115C1217.46 203.303 1214.35 200.212 1210.52 200.212C1206.69 200.212 1203.59 203.303 1203.59 207.115ZM1064.9 303.769C1064.9 307.582 1068 310.673 1071.83 310.673C1075.66 310.673 1078.77 307.582 1078.77 303.769C1078.77 299.956 1075.66 296.865 1071.83 296.865C1068 296.865 1064.9 299.956 1064.9 303.769ZM1120.37 289.962C1120.37 293.774 1123.48 296.865 1127.31 296.865C1131.14 296.865 1134.24 293.774 1134.24 289.962C1134.24 286.149 1131.14 283.058 1127.31 283.058C1123.48 283.058 1120.37 286.149 1120.37 289.962Z" stroke="url(#paint5_linear_39_7033)" style="" stroke-miterlimit="10"/>
<path opacity="0.4" d="M1011.05 69.0385H969.439L955.57 55.2308M858.485 0L886.224 27.6154H900.093M913.962 41.4231H900.093L927.831 69.0385M927.831 41.4231L941.701 55.2308V69.0385M955.57 41.4231L927.831 13.8077M1011.05 82.8462H997.177L983.308 69.0385M1038.78 82.7774L1066.52 110.393V138.077M1011.05 96.6539L1038.78 124.269M1011.05 124.269L997.177 138.077M983.308 124.269L1011.05 151.885M997.177 110.462H955.154L927.415 82.8462M997.177 110.462C997.177 112.257 998.634 113.776 1000.51 113.776M997.177 110.462C997.177 108.667 998.703 107.148 1000.51 107.148M1024.92 138.077L1052.65 165.692V138.077M1094.26 151.885L1122 179.5L1108.13 193.308H1080.39M1094.26 165.692H1066.52L1024.92 207.115M1052.65 179.5H1025.26L997.524 207.115M1080.39 220.923L1052.65 248.538V220.923M1038.78 262.346L1024.92 248.538M1038.78 234.731L997.177 276.154M969.231 22.5063C970.548 23.818 970.548 25.9582 969.231 27.2009C967.913 28.5126 965.764 28.5126 964.515 27.2009M946.417 331.385C945.099 332.696 942.949 332.696 941.701 331.385M941.701 331.385C940.453 330.073 940.384 327.933 941.701 326.69M941.701 331.385L913.962 359H900.093M969.439 41.4231L983.308 55.2308V41.4231L969.439 27.6154M1024.92 96.6539H997.177M858 345.192L885.738 317.577H955.57M955.57 345.192L1011.05 289.962V262.346M1108.13 179.5H1080.39L1066.52 193.308M1038.78 220.923H1024.92L997.177 248.538M997.177 262.346H983.308V234.731M997.177 220.923L1011.05 234.731M969.439 248.538L955.57 262.346V289.962M969.439 262.346V303.769H941.701M1073.46 151.885C1073.46 155.698 1076.56 158.788 1080.39 158.788C1084.22 158.788 1087.33 155.698 1087.33 151.885C1087.33 148.072 1084.22 144.981 1080.39 144.981C1076.56 144.981 1073.46 148.072 1073.46 151.885ZM907.028 27.6154C907.028 31.4283 910.132 34.5192 913.962 34.5192C917.792 34.5192 920.897 31.4283 920.897 27.6154C920.897 23.8025 917.792 20.7115 913.962 20.7115C910.132 20.7115 907.028 23.8025 907.028 27.6154ZM962.504 82.8462C962.504 86.659 965.609 89.75 969.439 89.75C973.269 89.75 976.374 86.659 976.374 82.8462C976.374 79.0333 973.269 75.9423 969.439 75.9423C965.609 75.9423 962.504 79.0333 962.504 82.8462ZM1059.59 207.115C1059.59 210.928 1062.69 214.019 1066.52 214.019C1070.35 214.019 1073.46 210.928 1073.46 207.115C1073.46 203.303 1070.35 200.212 1066.52 200.212C1062.69 200.212 1059.59 203.303 1059.59 207.115ZM920.897 303.769C920.897 307.582 924.001 310.673 927.831 310.673C931.661 310.673 934.766 307.582 934.766 303.769C934.766 299.956 931.661 296.865 927.831 296.865C924.001 296.865 920.897 299.956 920.897 303.769ZM976.374 289.962C976.374 293.774 979.478 296.865 983.308 296.865C987.138 296.865 990.243 293.774 990.243 289.962C990.243 286.149 987.138 283.058 983.308 283.058C979.478 283.058 976.374 286.149 976.374 289.962Z" stroke="url(#paint6_linear_39_7033)" style="" stroke-miterlimit="10"/>
<path opacity="0.2" d="M867.046 69.0385H825.439L811.57 55.2308M714.485 0L742.224 27.6154H756.093M769.962 41.4231H756.093L783.831 69.0385M783.831 41.4231L797.701 55.2308V69.0385M811.57 41.4231L783.831 13.8077M867.046 82.8462H853.177L839.308 69.0385M894.785 82.7774L922.523 110.393V138.077M867.046 96.6539L894.785 124.269M867.046 124.269L853.177 138.077M839.308 124.269L867.046 151.885M853.177 110.462H811.154L783.415 82.8462M853.177 110.462C853.177 112.257 854.634 113.776 856.506 113.776M853.177 110.462C853.177 108.667 854.703 107.148 856.506 107.148M880.916 138.077L908.654 165.692V138.077M950.262 151.885L978 179.5L964.131 193.308H936.392M950.262 165.692H922.523L880.916 207.115M908.654 179.5H881.262L853.524 207.115M936.392 220.923L908.654 248.538V220.923M894.785 262.346L880.916 248.538M894.785 234.731L853.177 276.154M825.231 22.5063C826.548 23.818 826.548 25.9582 825.231 27.2009C823.913 28.5126 821.764 28.5126 820.515 27.2009M802.417 331.385C801.099 332.696 798.949 332.696 797.701 331.385M797.701 331.385C796.453 330.073 796.384 327.933 797.701 326.69M797.701 331.385L769.962 359H756.093M825.439 41.4231L839.308 55.2308V41.4231L825.439 27.6154M880.916 96.6539H853.177M714 345.192L741.738 317.577H811.57M811.57 345.192L867.046 289.962V262.346M964.131 179.5H936.392L922.523 193.308M894.785 220.923H880.916L853.177 248.538M853.177 262.346H839.308V234.731M853.177 220.923L867.046 234.731M825.439 248.538L811.57 262.346V289.962M825.439 262.346V303.769H797.701M929.458 151.885C929.458 155.698 932.563 158.788 936.392 158.788C940.222 158.788 943.327 155.698 943.327 151.885C943.327 148.072 940.222 144.981 936.392 144.981C932.563 144.981 929.458 148.072 929.458 151.885ZM763.028 27.6154C763.028 31.4283 766.132 34.5192 769.962 34.5192C773.792 34.5192 776.897 31.4283 776.897 27.6154C776.897 23.8025 773.792 20.7115 769.962 20.7115C766.132 20.7115 763.028 23.8025 763.028 27.6154ZM818.504 82.8462C818.504 86.659 821.609 89.75 825.439 89.75C829.269 89.75 832.374 86.659 832.374 82.8462C832.374 79.0333 829.269 75.9423 825.439 75.9423C821.609 75.9423 818.504 79.0333 818.504 82.8462ZM915.589 207.115C915.589 210.928 918.693 214.019 922.523 214.019C926.353 214.019 929.458 210.928 929.458 207.115C929.458 203.303 926.353 200.212 922.523 200.212C918.693 200.212 915.589 203.303 915.589 207.115ZM776.897 303.769C776.897 307.582 780.001 310.673 783.831 310.673C787.661 310.673 790.766 307.582 790.766 303.769C790.766 299.956 787.661 296.865 783.831 296.865C780.001 296.865 776.897 299.956 776.897 303.769ZM832.374 289.962C832.374 293.774 835.478 296.865 839.308 296.865C843.138 296.865 846.243 293.774 846.243 289.962C846.243 286.149 843.138 283.058 839.308 283.058C835.478 283.058 832.374 286.149 832.374 289.962Z" stroke="url(#paint7_linear_39_7033)" style="" stroke-miterlimit="10"/>
<defs>
<linearGradient id="paint0_linear_39_7033" x1="133" y1="359" x2="133" y2="0" gradientUnits="userSpaceOnUse">
<stop stop-color="#6F4CFF" stop-opacity="0" style="stop-color:none;stop-opacity:0;"/>
<stop offset="1" stop-color="#6F4CFF" style="stop-color:#6F4CFF;stop-color:color(display-p3 0.4353 0.2980 1.0000);stop-opacity:1;"/>
</linearGradient>
<linearGradient id="paint1_linear_39_7033" x1="277" y1="359" x2="277" y2="0" gradientUnits="userSpaceOnUse">
<stop stop-color="#6F4CFF" stop-opacity="0" style="stop-color:none;stop-opacity:0;"/>
<stop offset="1" stop-color="#6F4CFF" style="stop-color:#6F4CFF;stop-color:color(display-p3 0.4353 0.2980 1.0000);stop-opacity:1;"/>
</linearGradient>
<linearGradient id="paint2_linear_39_7033" x1="421" y1="359" x2="421" y2="0" gradientUnits="userSpaceOnUse">
<stop stop-color="#6F4CFF" stop-opacity="0" style="stop-color:none;stop-opacity:0;"/>
<stop offset="1" stop-color="#6F4CFF" style="stop-color:#6F4CFF;stop-color:color(display-p3 0.4353 0.2980 1.0000);stop-opacity:1;"/>
</linearGradient>
<linearGradient id="paint3_linear_39_7033" x1="565" y1="359" x2="565" y2="0" gradientUnits="userSpaceOnUse">
<stop stop-color="#6F4CFF" stop-opacity="0" style="stop-color:none;stop-opacity:0;"/>
<stop offset="1" stop-color="#6F4CFF" style="stop-color:#6F4CFF;stop-color:color(display-p3 0.4353 0.2980 1.0000);stop-opacity:1;"/>
</linearGradient>
<linearGradient id="paint4_linear_39_7033" x1="1278" y1="359" x2="1278" y2="0" gradientUnits="userSpaceOnUse">
<stop stop-color="#6F4CFF" stop-opacity="0" style="stop-color:none;stop-opacity:0;"/>
<stop offset="1" stop-color="#6F4CFF" style="stop-color:#6F4CFF;stop-color:color(display-p3 0.4353 0.2980 1.0000);stop-opacity:1;"/>
</linearGradient>
<linearGradient id="paint5_linear_39_7033" x1="1134" y1="359" x2="1134" y2="0" gradientUnits="userSpaceOnUse">
<stop stop-color="#6F4CFF" stop-opacity="0" style="stop-color:none;stop-opacity:0;"/>
<stop offset="1" stop-color="#6F4CFF" style="stop-color:#6F4CFF;stop-color:color(display-p3 0.4353 0.2980 1.0000);stop-opacity:1;"/>
</linearGradient>
<linearGradient id="paint6_linear_39_7033" x1="990" y1="359" x2="990" y2="0" gradientUnits="userSpaceOnUse">
<stop stop-color="#6F4CFF" stop-opacity="0" style="stop-color:none;stop-opacity:0;"/>
<stop offset="1" stop-color="#6F4CFF" style="stop-color:#6F4CFF;stop-color:color(display-p3 0.4353 0.2980 1.0000);stop-opacity:1;"/>
</linearGradient>
<linearGradient id="paint7_linear_39_7033" x1="846" y1="359" x2="846" y2="0" gradientUnits="userSpaceOnUse">
<stop stop-color="#6F4CFF" stop-opacity="0" style="stop-color:none;stop-opacity:0;"/>
<stop offset="1" stop-color="#6F4CFF" style="stop-color:#6F4CFF;stop-color:color(display-p3 0.4353 0.2980 1.0000);stop-opacity:1;"/>
</linearGradient>
</defs>
</svg>
