<svg viewBox="0 0 1411 360" fill="none" xmlns="http://www.w3.org/2000/svg">
<path opacity="0.8" d="M1183.05 69.0385H1141.44L1127.57 55.2308M1030.49 0L1058.22 27.6154H1072.09M1085.96 41.4231H1072.09L1099.83 69.0385M1099.83 41.4231L1113.7 55.2308V69.0385M1127.57 41.4231L1099.83 13.8077M1183.05 82.8462H1169.18L1155.31 69.0385M1210.78 82.7774L1238.52 110.393V138.077M1183.05 96.6539L1210.78 124.269M1183.05 124.269L1169.18 138.077M1155.31 124.269L1183.05 151.885M1169.18 110.462H1127.15L1099.42 82.8462M1169.18 110.462C1169.18 112.257 1170.63 113.776 1172.51 113.776M1169.18 110.462C1169.18 108.667 1170.7 107.148 1172.51 107.148M1196.92 138.077L1224.65 165.692V138.077M1266.26 151.885L1294 179.5L1280.13 193.308H1252.39M1266.26 165.692H1238.52L1196.92 207.115M1224.65 179.5H1197.26L1169.52 207.115M1252.39 220.923L1224.65 248.538V220.923M1210.78 262.346L1196.92 248.538M1210.78 234.731L1169.18 276.154M1141.23 22.5063C1142.55 23.818 1142.55 25.9582 1141.23 27.2009C1139.91 28.5126 1137.76 28.5126 1136.52 27.2009M1118.42 331.385C1117.1 332.696 1114.95 332.696 1113.7 331.385M1113.7 331.385C1112.45 330.073 1112.38 327.933 1113.7 326.69M1113.7 331.385L1085.96 359H1072.09M1141.44 41.4231L1155.31 55.2308V41.4231L1141.44 27.6154M1196.92 96.6539H1169.18M1030 345.192L1057.74 317.577H1127.57M1127.57 345.192L1183.05 289.962V262.346M1280.13 179.5H1252.39L1238.52 193.308M1210.78 220.923H1196.92L1169.18 248.538M1169.18 262.346H1155.31V234.731M1169.18 220.923L1183.05 234.731M1141.44 248.538L1127.57 262.346V289.962M1141.44 262.346V303.769H1113.7M1245.46 151.885C1245.46 155.698 1248.56 158.788 1252.39 158.788C1256.22 158.788 1259.33 155.698 1259.33 151.885C1259.33 148.072 1256.22 144.981 1252.39 144.981C1248.56 144.981 1245.46 148.072 1245.46 151.885ZM1079.03 27.6154C1079.03 31.4283 1082.13 34.5192 1085.96 34.5192C1089.79 34.5192 1092.9 31.4283 1092.9 27.6154C1092.9 23.8025 1089.79 20.7115 1085.96 20.7115C1082.13 20.7115 1079.03 23.8025 1079.03 27.6154ZM1134.5 82.8462C1134.5 86.659 1137.61 89.75 1141.44 89.75C1145.27 89.75 1148.37 86.659 1148.37 82.8462C1148.37 79.0333 1145.27 75.9423 1141.44 75.9423C1137.61 75.9423 1134.5 79.0333 1134.5 82.8462ZM1231.59 207.115C1231.59 210.928 1234.69 214.019 1238.52 214.019C1242.35 214.019 1245.46 210.928 1245.46 207.115C1245.46 203.303 1242.35 200.212 1238.52 200.212C1234.69 200.212 1231.59 203.303 1231.59 207.115ZM1092.9 303.769C1092.9 307.582 1096 310.673 1099.83 310.673C1103.66 310.673 1106.77 307.582 1106.77 303.769C1106.77 299.956 1103.66 296.865 1099.83 296.865C1096 296.865 1092.9 299.956 1092.9 303.769ZM1148.37 289.962C1148.37 293.774 1151.48 296.865 1155.31 296.865C1159.14 296.865 1162.24 293.774 1162.24 289.962C1162.24 286.149 1159.14 283.058 1155.31 283.058C1151.48 283.058 1148.37 286.149 1148.37 289.962Z" stroke="url(#paint0_linear_1573_6945)" stroke-miterlimit="10"/>
<path opacity="0.6" d="M1039.05 69.0385H997.439L983.57 55.2308M886.485 0L914.224 27.6154H928.093M941.962 41.4231H928.093L955.831 69.0385M955.831 41.4231L969.701 55.2308V69.0385M983.57 41.4231L955.831 13.8077M1039.05 82.8462H1025.18L1011.31 69.0385M1066.78 82.7774L1094.52 110.393V138.077M1039.05 96.6539L1066.78 124.269M1039.05 124.269L1025.18 138.077M1011.31 124.269L1039.05 151.885M1025.18 110.462H983.154L955.415 82.8462M1025.18 110.462C1025.18 112.257 1026.63 113.776 1028.51 113.776M1025.18 110.462C1025.18 108.667 1026.7 107.148 1028.51 107.148M1052.92 138.077L1080.65 165.692V138.077M1122.26 151.885L1150 179.5L1136.13 193.308H1108.39M1122.26 165.692H1094.52L1052.92 207.115M1080.65 179.5H1053.26L1025.52 207.115M1108.39 220.923L1080.65 248.538V220.923M1066.78 262.346L1052.92 248.538M1066.78 234.731L1025.18 276.154M997.231 22.5063C998.548 23.818 998.548 25.9582 997.231 27.2009C995.913 28.5126 993.764 28.5126 992.515 27.2009M974.417 331.385C973.099 332.696 970.949 332.696 969.701 331.385M969.701 331.385C968.453 330.073 968.384 327.933 969.701 326.69M969.701 331.385L941.962 359H928.093M997.439 41.4231L1011.31 55.2308V41.4231L997.439 27.6154M1052.92 96.6539H1025.18M886 345.192L913.738 317.577H983.57M983.57 345.192L1039.05 289.962V262.346M1136.13 179.5H1108.39L1094.52 193.308M1066.78 220.923H1052.92L1025.18 248.538M1025.18 262.346H1011.31V234.731M1025.18 220.923L1039.05 234.731M997.439 248.538L983.57 262.346V289.962M997.439 262.346V303.769H969.701M1101.46 151.885C1101.46 155.698 1104.56 158.788 1108.39 158.788C1112.22 158.788 1115.33 155.698 1115.33 151.885C1115.33 148.072 1112.22 144.981 1108.39 144.981C1104.56 144.981 1101.46 148.072 1101.46 151.885ZM935.028 27.6154C935.028 31.4283 938.132 34.5192 941.962 34.5192C945.792 34.5192 948.897 31.4283 948.897 27.6154C948.897 23.8025 945.792 20.7115 941.962 20.7115C938.132 20.7115 935.028 23.8025 935.028 27.6154ZM990.504 82.8462C990.504 86.659 993.609 89.75 997.439 89.75C1001.27 89.75 1004.37 86.659 1004.37 82.8462C1004.37 79.0333 1001.27 75.9423 997.439 75.9423C993.609 75.9423 990.504 79.0333 990.504 82.8462ZM1087.59 207.115C1087.59 210.928 1090.69 214.019 1094.52 214.019C1098.35 214.019 1101.46 210.928 1101.46 207.115C1101.46 203.303 1098.35 200.212 1094.52 200.212C1090.69 200.212 1087.59 203.303 1087.59 207.115ZM948.897 303.769C948.897 307.582 952.001 310.673 955.831 310.673C959.661 310.673 962.766 307.582 962.766 303.769C962.766 299.956 959.661 296.865 955.831 296.865C952.001 296.865 948.897 299.956 948.897 303.769ZM1004.37 289.962C1004.37 293.774 1007.48 296.865 1011.31 296.865C1015.14 296.865 1018.24 293.774 1018.24 289.962C1018.24 286.149 1015.14 283.058 1011.31 283.058C1007.48 283.058 1004.37 286.149 1004.37 289.962Z" stroke="url(#paint1_linear_1573_6945)" stroke-miterlimit="10"/>
<path opacity="0.4" d="M895.046 69.0385H853.439L839.57 55.2308M742.485 0L770.224 27.6154H784.093M797.962 41.4231H784.093L811.831 69.0385M811.831 41.4231L825.701 55.2308V69.0385M839.57 41.4231L811.831 13.8077M895.046 82.8462H881.177L867.308 69.0385M922.785 82.7774L950.523 110.393V138.077M895.046 96.6539L922.785 124.269M895.046 124.269L881.177 138.077M867.308 124.269L895.046 151.885M881.177 110.462H839.154L811.415 82.8462M881.177 110.462C881.177 112.257 882.634 113.776 884.506 113.776M881.177 110.462C881.177 108.667 882.703 107.148 884.506 107.148M908.916 138.077L936.654 165.692V138.077M978.262 151.885L1006 179.5L992.131 193.308H964.392M978.262 165.692H950.523L908.916 207.115M936.654 179.5H909.262L881.524 207.115M964.392 220.923L936.654 248.538V220.923M922.785 262.346L908.916 248.538M922.785 234.731L881.177 276.154M853.231 22.5063C854.548 23.818 854.548 25.9582 853.231 27.2009C851.913 28.5126 849.764 28.5126 848.515 27.2009M830.417 331.385C829.099 332.696 826.949 332.696 825.701 331.385M825.701 331.385C824.453 330.073 824.384 327.933 825.701 326.69M825.701 331.385L797.962 359H784.093M853.439 41.4231L867.308 55.2308V41.4231L853.439 27.6154M908.916 96.6539H881.177M742 345.192L769.738 317.577H839.57M839.57 345.192L895.046 289.962V262.346M992.131 179.5H964.392L950.523 193.308M922.785 220.923H908.916L881.177 248.538M881.177 262.346H867.308V234.731M881.177 220.923L895.046 234.731M853.439 248.538L839.57 262.346V289.962M853.439 262.346V303.769H825.701M957.458 151.885C957.458 155.698 960.563 158.788 964.392 158.788C968.222 158.788 971.327 155.698 971.327 151.885C971.327 148.072 968.222 144.981 964.392 144.981C960.563 144.981 957.458 148.072 957.458 151.885ZM791.028 27.6154C791.028 31.4283 794.132 34.5192 797.962 34.5192C801.792 34.5192 804.897 31.4283 804.897 27.6154C804.897 23.8025 801.792 20.7115 797.962 20.7115C794.132 20.7115 791.028 23.8025 791.028 27.6154ZM846.504 82.8462C846.504 86.659 849.609 89.75 853.439 89.75C857.269 89.75 860.374 86.659 860.374 82.8462C860.374 79.0333 857.269 75.9423 853.439 75.9423C849.609 75.9423 846.504 79.0333 846.504 82.8462ZM943.589 207.115C943.589 210.928 946.693 214.019 950.523 214.019C954.353 214.019 957.458 210.928 957.458 207.115C957.458 203.303 954.353 200.212 950.523 200.212C946.693 200.212 943.589 203.303 943.589 207.115ZM804.897 303.769C804.897 307.582 808.001 310.673 811.831 310.673C815.661 310.673 818.766 307.582 818.766 303.769C818.766 299.956 815.661 296.865 811.831 296.865C808.001 296.865 804.897 299.956 804.897 303.769ZM860.374 289.962C860.374 293.774 863.478 296.865 867.308 296.865C871.138 296.865 874.243 293.774 874.243 289.962C874.243 286.149 871.138 283.058 867.308 283.058C863.478 283.058 860.374 286.149 860.374 289.962Z" stroke="url(#paint2_linear_1573_6945)" stroke-miterlimit="10"/>
<path opacity="0.2" d="M751.046 69.0385H709.439L695.57 55.2308M598.485 0L626.224 27.6154H640.093M653.962 41.4231H640.093L667.831 69.0385M667.831 41.4231L681.701 55.2308V69.0385M695.57 41.4231L667.831 13.8077M751.046 82.8462H737.177L723.308 69.0385M778.785 82.7774L806.523 110.393V138.077M751.046 96.6539L778.785 124.269M751.046 124.269L737.177 138.077M723.308 124.269L751.046 151.885M737.177 110.462H695.154L667.415 82.8462M737.177 110.462C737.177 112.257 738.634 113.776 740.506 113.776M737.177 110.462C737.177 108.667 738.703 107.148 740.506 107.148M764.916 138.077L792.654 165.692V138.077M834.262 151.885L862 179.5L848.131 193.308H820.392M834.262 165.692H806.523L764.916 207.115M792.654 179.5H765.262L737.524 207.115M820.392 220.923L792.654 248.538V220.923M778.785 262.346L764.916 248.538M778.785 234.731L737.177 276.154M709.231 22.5063C710.548 23.818 710.548 25.9582 709.231 27.2009C707.913 28.5126 705.764 28.5126 704.515 27.2009M686.417 331.385C685.099 332.696 682.949 332.696 681.701 331.385M681.701 331.385C680.453 330.073 680.384 327.933 681.701 326.69M681.701 331.385L653.962 359H640.093M709.439 41.4231L723.308 55.2308V41.4231L709.439 27.6154M764.916 96.6539H737.177M598 345.192L625.738 317.577H695.57M695.57 345.192L751.046 289.962V262.346M848.131 179.5H820.392L806.523 193.308M778.785 220.923H764.916L737.177 248.538M737.177 262.346H723.308V234.731M737.177 220.923L751.046 234.731M709.439 248.538L695.57 262.346V289.962M709.439 262.346V303.769H681.701M813.458 151.885C813.458 155.698 816.563 158.788 820.392 158.788C824.222 158.788 827.327 155.698 827.327 151.885C827.327 148.072 824.222 144.981 820.392 144.981C816.563 144.981 813.458 148.072 813.458 151.885ZM647.028 27.6154C647.028 31.4283 650.132 34.5192 653.962 34.5192C657.792 34.5192 660.897 31.4283 660.897 27.6154C660.897 23.8025 657.792 20.7115 653.962 20.7115C650.132 20.7115 647.028 23.8025 647.028 27.6154ZM702.504 82.8462C702.504 86.659 705.609 89.75 709.439 89.75C713.269 89.75 716.374 86.659 716.374 82.8462C716.374 79.0333 713.269 75.9423 709.439 75.9423C705.609 75.9423 702.504 79.0333 702.504 82.8462ZM799.589 207.115C799.589 210.928 802.693 214.019 806.523 214.019C810.353 214.019 813.458 210.928 813.458 207.115C813.458 203.303 810.353 200.212 806.523 200.212C802.693 200.212 799.589 203.303 799.589 207.115ZM660.897 303.769C660.897 307.582 664.001 310.673 667.831 310.673C671.661 310.673 674.766 307.582 674.766 303.769C674.766 299.956 671.661 296.865 667.831 296.865C664.001 296.865 660.897 299.956 660.897 303.769ZM716.374 289.962C716.374 293.774 719.478 296.865 723.308 296.865C727.138 296.865 730.243 293.774 730.243 289.962C730.243 286.149 727.138 283.058 723.308 283.058C719.478 283.058 716.374 286.149 716.374 289.962Z" stroke="url(#paint3_linear_1573_6945)" stroke-miterlimit="10"/>
<defs>
<linearGradient id="paint0_linear_1573_6945" x1="1162" y1="359" x2="1162" y2="0" gradientUnits="userSpaceOnUse">
<stop stop-color="#6F4CFF" stop-opacity="0"/>
<stop offset="1" stop-color="#6F4CFF"/>
</linearGradient>
<linearGradient id="paint1_linear_1573_6945" x1="1018" y1="359" x2="1018" y2="0" gradientUnits="userSpaceOnUse">
<stop stop-color="#6F4CFF" stop-opacity="0"/>
<stop offset="1" stop-color="#6F4CFF"/>
</linearGradient>
<linearGradient id="paint2_linear_1573_6945" x1="874" y1="359" x2="874" y2="0" gradientUnits="userSpaceOnUse">
<stop stop-color="#6F4CFF" stop-opacity="0"/>
<stop offset="1" stop-color="#6F4CFF"/>
</linearGradient>
<linearGradient id="paint3_linear_1573_6945" x1="730" y1="359" x2="730" y2="0" gradientUnits="userSpaceOnUse">
<stop stop-color="#6F4CFF" stop-opacity="0"/>
<stop offset="1" stop-color="#6F4CFF"/>
</linearGradient>
</defs>
</svg>
