<svg width="56" height="56" viewBox="0 0 56 56" fill="none" xmlns="http://www.w3.org/2000/svg">
<path d="M50.1698 12.0799L30.3293 0.623872C28.8878 -0.207957 27.1122 -0.207957 25.6707 0.623872L5.82845 12.0799C4.38775 12.9121 3.5 14.4495 3.5 16.1133V41.7143L3.55125 41.7451L9.27244 45.0473L11.1157 46.1115L17.2777 49.67L25.6707 54.5148C27.1122 55.3466 28.8878 55.3466 30.3293 54.5148L50.1698 43.0588C51.6115 42.2273 52.5 40.6896 52.5 39.0254V16.1133C52.5 14.4491 51.6115 12.9114 50.1698 12.0799ZM49.2422 37.1104L38.3858 18.6604L34.2499 25.697L44.2522 42.7086L42.3935 43.7831L32.9277 27.9298L28.8157 34.9203L36.2316 47.3398L28.9029 51.5714C28.3443 51.8943 27.6557 51.8943 27.0971 51.5714L18.9484 46.8666L37.2771 16.1799H28.9917L12.7865 43.315L10.9244 42.2405L26.2532 16.1799H21.598C19.3503 16.1803 17.2707 17.3703 16.1314 19.3079L6.75778 35.238V16.349C6.75723 15.7037 7.1011 15.1072 7.65978 14.7842L27.0971 3.5622C27.6557 3.23929 28.3443 3.23929 28.9029 3.5622L48.3385 14.7842C48.8976 15.107 49.2422 15.7035 49.2422 16.349V37.1104Z" fill="white"/>
</svg>
