<svg width="40" height="40" viewBox="0 0 40 40" fill="none" xmlns="http://www.w3.org/2000/svg">
<path d="M20 5.1735C20.7225 5.17119 21.4312 5.37121 22.0459 5.75093C22.6606 6.13065 23.1567 6.67489 23.478 7.32202L34.415 29.1961C34.7117 29.789 34.8519 30.4479 34.8222 31.1102C34.7926 31.7726 34.5941 32.4163 34.2456 32.9803C33.8971 33.5443 33.4102 34.0099 32.8311 34.3328C32.252 34.6556 31.6 34.8251 30.937 34.825H9.06297C8.39998 34.8251 7.74798 34.6556 7.16891 34.3328C6.58984 34.0099 6.10293 33.5443 5.75444 32.9803C5.40595 32.4163 5.20744 31.7726 5.17779 31.1102C5.14813 30.4479 5.2883 29.789 5.58499 29.1961L16.522 7.32202C16.8433 6.67489 17.3394 6.13065 17.9541 5.75093C18.5688 5.37121 19.2775 5.17119 20 5.1735ZM20 2.5C18.7814 2.49986 17.5869 2.83902 16.5502 3.47949C15.5135 4.11996 14.6757 5.03643 14.1305 6.12623L3.19343 28.0003C2.69289 29.0008 2.45646 30.1127 2.50659 31.2304C2.55673 32.348 2.89177 33.4343 3.47989 34.386C4.068 35.3377 4.88967 36.1232 5.86683 36.668C6.844 37.2127 7.94421 37.4986 9.06297 37.4985H30.937C32.0558 37.4986 33.156 37.2127 34.1332 36.668C35.1103 36.1232 35.932 35.3377 36.5201 34.386C37.1082 33.4343 37.4433 32.348 37.4934 31.2304C37.5435 30.1127 37.3071 29.0008 36.8066 28.0003L25.8695 6.12623C25.3243 5.03643 24.4865 4.11996 23.4498 3.47949C22.4131 2.83902 21.2186 2.49986 20 2.5Z" fill="white" />
</svg>
