<svg width="56" height="56" viewBox="0 0 56 56" fill="none" xmlns="http://www.w3.org/2000/svg">
<path fill-rule="evenodd" clip-rule="evenodd" d="M12.5468 20.5281C12.8944 19.9492 13.7333 19.9492 14.0806 20.5281L16.9916 25.3789C17.1616 25.6623 17.1616 26.0161 16.9916 26.2992L10.9845 36.3098C10.823 36.5793 10.5318 36.744 10.2176 36.744H4.39589C3.70065 36.744 3.27098 35.9855 3.62898 35.3895L12.5468 20.5281ZM18.5652 30.5571C18.9125 29.978 19.7517 29.978 20.099 30.5571L22.999 35.3894C23.3566 35.9855 22.9273 36.7443 22.2321 36.7443H16.4321C15.7369 36.7443 15.3075 35.9855 15.6655 35.3894L18.5652 30.5571ZM41.9192 20.5281C42.2665 19.9492 43.1054 19.9492 43.4527 20.5281L46.364 25.3789C46.5336 25.6623 46.5336 26.0161 46.364 26.2992L40.3569 36.3098C40.1951 36.5793 39.9039 36.744 39.5896 36.744H33.768C33.0727 36.744 32.6431 35.9855 33.0011 35.3895L41.9192 20.5281ZM47.9372 30.5572C48.2848 29.9781 49.1237 29.9781 49.4714 30.5572L52.371 35.3895C52.729 35.9856 52.2994 36.744 51.6044 36.744H45.8045C45.1092 36.744 44.6799 35.9856 45.0376 35.3895L47.9372 30.5572ZM24.9036 19.2501C25.2178 19.2501 25.5087 19.4148 25.6705 19.6843L31.6777 29.6949C31.8476 29.978 31.8476 30.3318 31.6777 30.6152L28.7667 35.466C28.4194 36.0452 27.5805 36.0452 27.2329 35.466L18.315 20.6046C17.957 20.0086 18.3867 19.2501 19.0819 19.2501H24.9036ZM36.9181 19.25C37.6134 19.25 38.0427 20.0085 37.685 20.6048L34.785 25.4371C34.4378 26.016 33.5985 26.016 33.2512 25.4371L30.3516 20.6048C29.9936 20.0085 30.4229 19.25 31.1185 19.25H36.9181Z" fill="white"/>
</svg>
