<svg width="50" height="50" viewBox="0 0 50 50" fill="none" xmlns="http://www.w3.org/2000/svg">
  <path fill-rule="evenodd" clip-rule="evenodd" d="M49.5 25C49.5 38.531 38.531 49.5 25 49.5C11.469 49.5 0.5 38.531 0.5 25C0.5 11.469 11.469 0.5 25 0.5C38.531 0.5 49.5 11.469 49.5 25ZM24.9024 8.69918L16.2723 13.7227L19.4451 15.5785L24.9024 12.4108L30.3597 15.5785L33.5326 13.7227L24.9024 8.69918ZM30.3597 18.2023L33.5326 20.0581V23.7697L28.0753 26.9374V33.2728L24.9024 35.1286L21.7296 33.2728V26.9374L16.2723 23.7697V20.0581L19.4451 18.2023L24.9024 21.37L30.3597 18.2023ZM33.5326 26.3935V30.1051L30.3597 31.9609V28.2493L33.5326 26.3935ZM30.328 34.5847L35.7854 31.417V25.0816L38.9582 23.2258V33.2728L30.328 38.2963V34.5847ZM35.7854 18.7462L32.6125 16.8904L35.7854 15.0346L38.9582 16.8904V20.602L35.7854 22.4579V18.7462ZM21.7296 39.6402V35.9285L24.9024 37.7844L28.0753 35.9285V39.6402L24.9024 41.496L21.7296 39.6402ZM19.4451 31.9609L16.2723 30.1051V26.3935L19.4451 28.2493V31.9609ZM24.9024 18.7462L21.7296 16.8904L24.9024 15.0346L28.0753 16.8904L24.9024 18.7462ZM17.1924 16.8904L14.0195 18.7462V22.4579L10.8467 20.602V16.8904L14.0195 15.0346L17.1924 16.8904ZM10.8467 23.2258L14.0195 25.0816V31.417L19.4768 34.5847V38.2963L10.8467 33.2728V23.2258Z" fill="white"/>
</svg>