<svg width="56" height="56" viewBox="0 0 56 56" fill="none" xmlns="http://www.w3.org/2000/svg">
<path fill-rule="evenodd" clip-rule="evenodd" d="M32.8328 44.2124V49.7502L28.0588 52.5L23.2849 49.7502V44.2124L28.0588 46.9622L32.8328 44.2124ZM6.86241 25.2693L11.6364 28.0191V37.4906L19.8858 42.2646V47.8024L6.86241 40.2786V25.2693ZM49.2934 25.2311V40.2405L36.27 47.7642V42.2264L44.4813 37.4906V28.0191L49.2934 25.2311ZM36.3082 17.7455L41.0822 20.4953V26.0331L32.8328 30.7689V40.2405L28.0588 42.9903L23.2849 40.2405V30.7689L15.0736 26.0331V20.4953L19.8476 17.7455L28.0588 22.4813L36.3082 17.7455ZM41.044 29.9669V35.5429L36.27 38.2927V32.7167L41.044 29.9669ZM15.0736 30.0051L19.8476 32.7549V38.2927L15.0736 35.5429V30.0051ZM44.4813 12.9716L49.2552 15.7595V21.2973L44.4813 24.0472V18.5094L39.7073 15.7214L44.4813 12.9716ZM11.6364 12.9716L16.3722 15.7595L11.5982 18.5094V24.0472L6.82422 21.2973H6.86241V15.7214L11.6364 12.9716ZM28.0588 12.9716L32.8328 15.7595L28.0588 18.5094L23.2849 15.7595L28.0588 12.9716ZM28.0588 3.5L41.0822 11.0238L36.3082 13.7736L28.0588 9.0378L19.8476 13.7736L15.0736 11.0238L28.0588 3.5Z" fill="white" />
</svg>
