<svg width="1024" height="1024" viewBox="0 0 1024 1024" fill="none" xmlns="http://www.w3.org/2000/svg">
<path fill-rule="evenodd" clip-rule="evenodd" d="M520.027 88.3895C515.967 84.6537 513.872 84.583 513.52 84.583C513.168 84.583 511.073 84.6537 507.014 88.3895C502.847 92.2243 497.866 98.8408 492.499 109.05C481.786 129.427 471.534 160.227 462.696 199.969C452.759 244.661 444.907 299.287 439.953 360.436C463.88 372.014 488.485 384.6 513.514 398.115C538.547 384.598 563.156 372.01 587.087 360.43C582.133 299.284 574.281 244.66 564.344 199.969C555.507 160.227 545.254 129.427 534.542 109.05C529.175 98.8408 524.194 92.2243 520.027 88.3895ZM492.573 409.586C474.192 399.819 456.083 390.58 438.352 381.9C437.008 401.586 435.961 421.878 435.234 442.67C444.612 437.054 454.127 431.46 463.77 425.896C473.413 420.332 483.018 414.894 492.573 409.586ZM420.649 351.245C435.009 183.564 471.175 64.583 513.52 64.583C555.865 64.583 592.031 183.561 606.391 351.24C758.873 279.831 880.056 251.645 901.229 288.294C922.401 324.943 837.382 415.733 699.259 512C837.382 608.267 922.401 699.057 901.229 735.706C880.056 772.355 758.873 744.169 606.391 672.76C592.031 840.439 555.865 959.417 513.52 959.417C471.175 959.417 435.009 840.436 420.649 672.755C268.162 744.167 146.972 772.356 125.799 735.706C104.626 699.057 189.645 608.267 327.769 512C189.645 415.733 104.626 324.944 125.799 288.294C146.972 251.644 268.162 279.833 420.649 351.245ZM345.393 499.884C294.876 465.019 251.461 430.907 217.699 399.958C187.677 372.438 166.113 348.163 153.81 328.703C147.647 318.953 144.405 311.334 143.166 305.813C141.959 300.436 142.945 298.595 143.117 298.299L143.117 298.299C143.289 298 144.396 296.222 149.665 294.576C155.074 292.886 163.301 291.883 174.834 292.342C197.852 293.259 229.672 299.786 268.531 312.009C312.23 325.755 363.494 346.272 418.961 372.559C417.031 399.052 415.636 426.637 414.833 455.052C390.603 469.959 367.392 484.962 345.393 499.884ZM345.393 524.116C294.876 558.981 251.461 593.093 217.699 624.042C187.677 651.562 166.113 675.837 153.81 695.297C147.647 705.047 144.405 712.666 143.166 718.187C141.959 723.564 142.945 725.405 143.117 725.701C143.288 725.999 144.394 727.777 149.665 729.424C155.074 731.114 163.301 732.117 174.834 731.658C197.852 730.74 229.672 724.214 268.531 711.99C312.23 698.245 363.494 677.728 418.961 651.441C417.031 624.947 415.636 597.363 414.833 568.947C390.603 554.041 367.392 539.038 345.393 524.116ZM414.303 545.089C396.645 534.062 379.582 523.008 363.191 512C379.582 500.992 396.645 489.938 414.303 478.911C414.125 489.837 414.035 500.871 414.035 512C414.035 523.129 414.125 534.163 414.303 545.089ZM434.549 557.56C434.209 542.591 434.035 527.392 434.035 512C434.035 496.608 434.209 481.409 434.549 466.44C447.349 458.662 460.43 450.913 473.765 443.219C487.107 435.521 500.369 428.071 513.514 420.879C526.659 428.071 539.921 435.521 553.262 443.219C566.602 450.916 579.688 458.668 592.491 466.448C592.831 481.414 593.006 496.611 593.006 512C593.006 527.389 592.831 542.586 592.491 557.552C579.688 565.332 566.602 573.084 553.262 580.781C539.921 588.479 526.659 595.929 513.514 603.121C500.369 595.929 487.107 588.479 473.766 580.781C460.43 573.087 447.349 565.338 434.549 557.56ZM435.234 581.33C435.961 602.122 437.008 622.414 438.352 642.1C456.083 633.42 474.192 624.18 492.573 614.414C483.018 609.106 473.413 603.668 463.77 598.104C454.127 592.54 444.612 586.946 435.234 581.33ZM513.514 625.885C488.485 639.4 463.88 651.986 439.953 663.563C444.907 724.713 452.759 779.339 462.696 824.03C471.534 863.773 481.786 894.573 492.499 914.95C497.866 925.159 502.847 931.776 507.014 935.61C511.073 939.346 513.168 939.417 513.52 939.417C513.872 939.417 515.967 939.346 520.027 935.61C524.194 931.776 529.175 925.159 534.542 914.95C545.254 894.573 555.507 863.773 564.344 824.03C574.281 779.34 582.133 724.716 587.087 663.569C563.156 651.99 538.547 639.402 513.514 625.885ZM608.079 651.447C663.541 677.731 714.801 698.246 758.496 711.99C797.356 724.214 829.176 730.74 852.194 731.658C863.726 732.117 871.953 731.114 877.363 729.424C882.634 727.777 883.739 725.999 883.911 725.701C884.082 725.406 885.069 723.566 883.862 718.187C882.623 712.666 879.381 705.047 873.217 695.297C860.915 675.837 839.351 651.562 809.329 624.042C775.567 593.093 732.152 558.981 681.635 524.116C659.64 539.035 636.432 554.036 612.208 568.939C611.405 597.36 610.01 624.949 608.079 651.447ZM681.635 499.884C732.152 465.019 775.567 430.907 809.329 399.958C839.351 372.438 860.915 348.163 873.217 328.703C879.381 318.953 882.623 311.334 883.862 305.813C885.069 300.434 884.082 298.594 883.911 298.299C883.739 298.001 882.634 296.223 877.363 294.576C871.953 292.886 863.726 291.883 852.194 292.342C829.176 293.259 797.356 299.786 758.496 312.009C714.801 325.754 663.541 346.269 608.079 372.553C610.01 399.051 611.405 426.64 612.208 455.06C636.432 469.964 659.64 484.965 681.635 499.884ZM612.738 478.919C630.391 489.943 647.45 500.995 663.836 512C647.45 523.005 630.391 534.057 612.738 545.081C612.915 534.158 613.006 523.126 613.006 512C613.006 500.874 612.915 489.842 612.738 478.919ZM591.807 442.678C591.08 421.881 590.032 401.585 588.688 381.894C570.953 390.576 552.84 399.817 534.455 409.586C544.01 414.894 553.615 420.332 563.257 425.896C572.905 431.462 582.425 437.059 591.807 442.678ZM588.688 642.106C570.953 633.424 552.84 624.183 534.455 614.414C544.01 609.106 553.615 603.668 563.257 598.104C572.905 592.538 582.425 586.941 591.807 581.322C591.08 602.119 590.032 622.415 588.688 642.106Z" fill="white"/>
<path fill-rule="evenodd" clip-rule="evenodd" d="M227.547 386.703C244.924 386.703 259.01 400.796 259.01 418.18C259.01 435.565 244.924 449.658 227.547 449.658C210.171 449.658 196.085 435.565 196.085 418.18C196.085 400.796 210.171 386.703 227.547 386.703Z" fill="white"/>
<path fill-rule="evenodd" clip-rule="evenodd" d="M727.586 278.91C744.97 278.91 759.064 293.003 759.064 310.388C759.064 327.773 744.97 341.866 727.586 341.866C710.201 341.866 696.108 327.773 696.108 310.388C696.108 293.003 710.201 278.91 727.586 278.91Z" fill="white"/>
<path fill-rule="evenodd" clip-rule="evenodd" d="M450.119 772.975C467.504 772.975 481.597 787.061 481.597 804.438C481.597 821.814 467.504 835.9 450.119 835.9C432.734 835.9 418.641 821.814 418.641 804.438C418.641 787.061 432.734 772.975 450.119 772.975Z" fill="white"/>
<path fill-rule="evenodd" clip-rule="evenodd" d="M511.767 458.473C541.2 458.473 565.06 482.334 565.06 511.767C565.06 541.2 541.2 565.06 511.767 565.06C482.334 565.06 458.473 541.2 458.473 511.767C458.473 482.334 482.334 458.473 511.767 458.473Z" fill="white"/>
</svg>
