<svg width="56" height="56" viewBox="0 0 56 56" fill="none" xmlns="http://www.w3.org/2000/svg">
<path fill-rule="evenodd" clip-rule="evenodd" d="M25.8704 3.96938C27.0551 3.34354 28.8579 3.34354 30.0426 3.96938L42.132 10.3555C42.8455 10.7325 43.2374 11.2941 43.3077 11.8739L43.3192 11.8739V43.9738C43.3034 44.6064 42.9079 45.2346 42.132 45.6445L30.0426 52.0306C28.8579 52.6565 27.0551 52.6565 25.8704 52.0306L13.781 45.6445C13.0084 45.2363 12.6376 44.6037 12.6192 43.9738C12.6173 43.9093 12.6172 43.856 12.6192 43.8121L12.6192 12.09C12.6174 12.0455 12.6174 12.001 12.6192 11.9567L12.6192 11.8739L12.6246 11.8739C12.6783 11.2877 13.0524 10.7404 13.781 10.3555L25.8704 3.96938ZM41.4162 29.7822L30.0426 35.7903C28.8579 36.4162 27.0551 36.4162 25.8704 35.7903L14.522 29.7956V43.9107L25.8704 49.8736C26.541 50.232 27.2383 50.5811 27.9173 50.5963L27.9565 50.5969C28.6342 50.5991 29.2921 50.2549 29.9593 49.9291L41.4162 43.8593V29.7822ZM10.6529 43.276C10.6529 44.5059 10.7958 45.3143 11.0796 45.8838C11.3148 46.3558 11.6677 46.7165 12.312 47.1554L12.3488 47.1803C12.4902 47.2757 12.646 47.3756 12.8357 47.493L13.0593 47.63L13.7459 48.0444L12.7611 49.6728L11.9925 49.2086L11.8633 49.1293C11.6411 48.9921 11.4569 48.8742 11.2851 48.7584C9.44863 47.5201 8.76372 46.17 8.7502 43.3616L8.75 43.276H10.6529ZM27.0051 21.1785C26.9169 21.2087 26.8344 21.2437 26.7591 21.2835L14.6697 27.6697C14.657 27.6764 14.6449 27.683 14.6334 27.6896L14.6231 27.6955L14.6421 27.7064L14.6697 27.7213L26.7591 34.1075C26.8344 34.1472 26.9169 34.1822 27.0051 34.2125V21.1785ZM28.9079 21.1785V34.2125C28.996 34.1822 29.0786 34.1472 29.1539 34.1075L41.2433 27.7213C41.256 27.7146 41.2681 27.708 41.2796 27.7014L41.2898 27.6955L41.2709 27.6846L41.2433 27.6697L29.1539 21.2835C29.0786 21.2437 28.996 21.2087 28.9079 21.1785ZM41.4162 14.151L30.5712 19.8798L41.4162 25.6087V14.151ZM14.522 14.1644V25.5953L25.3418 19.8798L14.522 14.1644ZM29.1539 5.65223C28.5252 5.32013 27.3878 5.32013 26.7591 5.65223L14.6697 12.0384C14.657 12.0451 14.6449 12.0517 14.6334 12.0583L14.6231 12.0642L14.6421 12.0751L14.6697 12.09L26.7591 18.4762C27.3878 18.8083 28.5252 18.8083 29.1539 18.4762L41.2433 12.09C41.256 12.0833 41.2681 12.0767 41.2796 12.0702L41.2898 12.0642L41.2709 12.0533L41.2433 12.0384L29.1539 5.65223ZM43.2027 6.35254L43.9712 6.81678L44.1004 6.8961C44.3226 7.03329 44.5068 7.15115 44.6786 7.26699C46.5151 8.50528 47.2 9.85535 47.2135 12.6638L47.2137 12.7494H45.3108C45.3108 11.5195 45.1679 10.7111 44.8842 10.1416C44.649 9.6696 44.2961 9.30888 43.6517 8.86996L43.6149 8.84503C43.4735 8.74968 43.3177 8.64978 43.1281 8.53239L42.9045 8.39541L42.2178 7.98096L43.2027 6.35254Z" fill="white"/>
</svg>
