<svg width="56" height="56" viewBox="0 0 56 56" fill="none" xmlns="http://www.w3.org/2000/svg">
<path fill-rule="evenodd" clip-rule="evenodd" d="M30.5489 4.21308L49.4369 14.0587C51.4238 15.0946 51.4578 16.8805 49.5127 18.0454L46.0774 20.1036L44.7706 20.8867L43.4633 21.6698L35.8483 26.2322L34.5416 27.0153L33.2342 27.7984L31.022 29.124C29.9746 29.7515 28.566 30.0718 27.1789 30.0718C25.9904 30.0718 24.817 29.8371 23.9003 29.3593L21.215 27.9591L19.8632 27.2538L18.5114 26.5498L10.986 22.6266L9.6342 21.922L8.28239 21.2173L5.01232 19.5124C3.02545 18.4765 2.99213 16.6912 4.93718 15.5263L23.4273 4.44774C24.4746 3.82024 25.8833 3.5 27.2704 3.5C28.4595 3.5 29.6323 3.73467 30.5489 4.21308ZM49.4369 24.6894L46.1669 22.9543L38.5519 27.5975L37.2446 28.3944L35.9378 29.1913L32.3731 31.3651C30.9514 32.2327 29.1063 32.7096 27.1789 32.7096C25.5069 32.7096 23.9533 32.354 22.6851 31.6818L18.6009 29.5146L17.2491 28.7981L15.8973 28.081L8.3719 24.0877L4.93718 26.1823C2.99213 27.3685 3.02545 29.1854 5.01232 30.2396L8.93967 32.323L10.2915 33.0402L11.6426 33.7573L23.9003 40.2601C24.817 40.7464 25.9904 40.9852 27.1789 40.9852C28.566 40.9852 29.9746 40.6599 31.022 40.0213L42.8066 32.8356L44.114 32.0387L45.4207 31.2418L49.5127 28.7467C51.4578 27.5612 51.4238 25.7436 49.4369 24.6894ZM27.1164 43.6282C25.4488 43.6282 23.8992 43.2786 22.6344 42.6172L9.01445 35.4962L4.93322 37.9488C2.99328 39.1141 3.02717 40.9007 5.00881 41.9369L23.8464 51.7866C24.7614 52.2646 25.931 52.5 27.1164 52.5C28.5005 52.5 29.9048 52.1796 30.95 51.5519L49.3914 40.4694C51.3314 39.3035 51.2975 37.5169 49.3158 36.4813L45.3995 34.4327L32.2969 42.3072C30.879 43.1587 29.0394 43.6282 27.1164 43.6282Z" fill="white"/>
</svg>
