<svg width="56" height="56" viewBox="0 0 56 56" fill="none" xmlns="http://www.w3.org/2000/svg">
  <path d="M18.198307,31.293291c1.374549,.003857,2.710899-.452129,3.796394-1.295397l-8.687938-8.68483c-.848879,1.081989-1.305725,2.419881-1.295899,3.795091-.00933,3.40663,2.744725,6.175814,6.151355,6.185143,.012029,.000034,.024059,.000031,.036088-.000006Z" fill="white"/>
  <path d="M44.043032,25.089912c.003823-1.374228-.45237-2.710205-1.295899-3.795091l-8.687938,8.684731c1.082592,.848649,2.420852,1.305322,3.796394,1.295498,3.406627,.010601,6.176835-2.742423,6.187436-6.14905,.000037-.012029,.00004-.024059,.000006-.036088Z" fill="white"/>
  <path d="M48.42353,15.657107l-3.851216,3.849814c3.103929,3.708971,2.613446,9.231919-1.095527,12.335848-3.253366,2.72265-7.990405,2.721785-11.242778-.002055l-4.216232,4.21463-4.216232-4.21463c-3.706027,3.107095-9.229154,2.621564-12.336248-1.084464-2.727664-3.253455-2.72853-7.994878-.002057-11.249331l-1.97121-1.970508-1.880006-1.879305c-2.26242,3.72245-3.455932,7.99609-3.449618,12.352136,0,13.173074,10.67739,23.82831,23.837132,23.82831,13.159641,0,23.837033-10.67348,23.837033-23.828312,.041368-4.355737-1.141201-8.635564-3.413041-12.352134Z" fill="white"/>
  <path d="M45.265867,11.551822C36.188737,2.025938,21.108017,1.662148,11.582133,10.739276c-.277342,.264277-.54827,.535205-.812546,.812546-.584007,.620388-1.149772,1.277258-1.679157,1.952268l18.909106,18.902091L46.90854,13.485851c-.49609-.68668-1.045338-1.333343-1.642674-1.934028ZM28.017777,7.26419c5.585097,0,10.768692,2.152957,14.656289,6.075734l-14.656291,14.65098L13.361385,13.339923c3.905937-3.922777,9.071295-6.075735,14.65639-6.075735h.000002Z" fill="white"/>
</svg>