<svg width="170" height="170" viewBox="0 0 170 170" fill="none" xmlns="http://www.w3.org/2000/svg">
<path d="M132.522 0.132205C122.875 0.132153 113.621 3.95156 106.789 10.7535C99.9569 17.5555 96.1022 26.7853 96.0707 36.4205V76.6567C92.3178 76.9359 88.485 77.0954 84.4926 77.0954C80.5002 77.0954 76.7074 77.0954 72.9145 77.4543V36.4205C72.9145 26.7645 69.0742 17.504 62.2383 10.6762C55.4025 3.8484 46.1308 0.0125732 36.4636 0.0125732C26.7961 0.0125732 17.5247 3.8484 10.6888 10.6762C3.85293 17.504 0.0125734 26.7645 0.0125732 36.4205V132.605C0.0125732 142.26 3.85293 151.521 10.6888 158.349C17.5247 165.177 26.7961 169.013 36.4636 169.013C46.1308 169.013 55.4025 165.177 62.2383 158.349C69.0742 151.521 72.9145 142.26 72.9145 132.605V92.3684C76.6674 92.1291 80.5401 91.9696 84.4926 91.9696C88.4451 91.9696 92.4775 91.9696 96.0707 91.5709V132.605C96.3837 142.057 100.363 151.018 107.169 157.595C113.974 164.171 123.073 167.847 132.542 167.847C142.01 167.847 151.109 164.171 157.914 157.595C164.72 151.018 168.7 142.057 169.013 132.605V36.4205C168.97 26.7816 165.107 17.5519 158.269 10.7511C151.429 3.95024 142.172 0.132112 132.522 0.132205ZM36.4636 15.0064C42.1572 15.0064 47.6184 17.26 51.652 21.2736C55.6852 25.2873 57.9616 30.7338 57.9828 36.4205V79.0494C47.3138 80.6186 36.8975 83.5818 27.0015 87.8623C22.7312 89.7588 18.709 92.1694 15.0241 95.0402V36.4205C15.0452 30.7476 17.3107 25.3131 21.3269 21.3017C25.343 17.2903 30.7839 15.0275 36.4636 15.0064ZM57.9828 132.605C57.9828 138.305 55.7155 143.772 51.6799 147.803C47.6444 151.834 42.1707 154.098 36.4636 154.098C30.7563 154.098 25.2828 151.834 21.2471 147.803C17.2115 143.772 14.9443 138.305 14.9443 132.605V122.954C14.9443 114.46 21.6915 106.365 33.0301 101.341C41.0181 97.9002 49.3983 95.4493 57.9828 94.0432V132.605ZM132.522 154.059C126.825 154.059 121.362 151.798 117.334 147.775C113.305 143.751 111.042 138.295 111.042 132.605V90.0156C121.709 88.458 132.126 85.5087 142.024 81.2426C146.299 79.372 150.323 76.9742 154.001 74.1046V132.605C153.991 138.291 151.724 143.742 147.698 147.763C143.672 151.784 138.215 154.048 132.522 154.059ZM135.955 67.6445C127.979 71.0795 119.613 73.53 111.042 74.942V36.4205C111.281 30.8854 113.651 25.6562 117.657 21.8239C121.662 17.9916 126.995 15.8523 132.542 15.8523C138.088 15.8523 143.421 17.9916 147.427 21.8239C151.433 25.6562 153.802 30.8854 154.041 36.4205V46.0709C154.041 54.5647 147.294 62.6199 135.955 67.6445Z" fill="white"/>
</svg>
