<svg width="16" height="16" viewBox="0 0 16 16" fill="none" xmlns="http://www.w3.org/2000/svg">
<path d="M12.0101 1C11.2082 0.999378 10.4389 1.31693 9.87099 1.88296C9.30306 2.44898 8.98293 3.21723 8.98087 4.01905V7.36644C8.6689 7.3875 8.34992 7.40076 8.01923 7.40076C7.68855 7.40076 7.37112 7.41402 7.0576 7.43274V4.01905C7.04484 3.22418 6.72013 2.46618 6.1535 1.90858C5.58688 1.35098 4.82377 1.03847 4.0288 1.03847C3.23383 1.03847 2.47071 1.35098 1.90409 1.90858C1.33747 2.46618 1.01276 3.22418 1 4.01905V12.0194C1.01276 12.8143 1.33747 13.5723 1.90409 14.1299C2.47071 14.6875 3.23383 15 4.0288 15C4.82377 15 5.58688 14.6875 6.1535 14.1299C6.72013 13.5723 7.04484 12.8143 7.0576 12.0194V8.67202C7.36956 8.65096 7.68855 8.6377 8.01923 8.6377C8.34992 8.6377 8.66734 8.62445 8.98087 8.60573V12.0194C8.99362 12.8143 9.31834 13.5723 9.88496 14.1299C10.4516 14.6875 11.2147 15 12.0097 15C12.8046 15 13.5677 14.6875 14.1344 14.1299C14.701 13.5723 15.0257 12.8143 15.0385 12.0194V4.01905C15.0364 3.21736 14.7164 2.44924 14.1486 1.88323C13.5809 1.31723 12.8117 0.999585 12.0101 1ZM4.02841 2.23695C4.50162 2.23674 4.95559 2.42425 5.29071 2.75835C5.62583 3.09245 5.81473 3.54584 5.81597 4.01905V7.56376C4.92982 7.69217 4.06446 7.93683 3.24225 8.29142C2.88602 8.44777 2.55066 8.64793 2.24396 8.88728V4.01905C2.2452 3.54638 2.43368 3.09346 2.76812 2.75945C3.10257 2.42544 3.55574 2.23756 4.02841 2.23695ZM5.81597 12.0194C5.81597 12.4935 5.62764 12.9482 5.29241 13.2834C4.95717 13.6186 4.5025 13.807 4.02841 13.807C3.55432 13.807 3.09964 13.6186 2.76441 13.2834C2.42918 12.9482 2.24084 12.4935 2.24084 12.0194V11.2169C2.24084 10.5079 2.80238 9.83643 3.74374 9.4184C4.40704 9.13224 5.103 8.92871 5.81597 8.81241V12.0194ZM12.0101 13.8015C11.5368 13.8017 11.0829 13.6142 10.7478 13.2801C10.4126 12.946 10.2237 12.4926 10.2225 12.0194V8.4747C11.1086 8.34629 11.974 8.10163 12.7962 7.74704C13.1524 7.59069 13.4878 7.39053 13.7945 7.15119V12.0194C13.7933 12.4921 13.6048 12.945 13.2703 13.279C12.9359 13.613 12.4827 13.8009 12.0101 13.8015ZM12.2947 6.61539C11.6314 6.90155 10.9355 7.10508 10.2225 7.22138V4.01905C10.2225 3.54496 10.4108 3.09028 10.7461 2.75505C11.0813 2.41982 11.536 2.23149 12.0101 2.23149C12.4841 2.23149 12.9388 2.41982 13.2741 2.75505C13.6093 3.09028 13.7976 3.54496 13.7976 4.01905V4.82158C13.7976 5.52741 13.2361 6.19891 12.2947 6.61539Z" fill="white"/>
</svg>
