<svg width="16" height="16" viewBox="0 0 16 16" fill="none" xmlns="http://www.w3.org/2000/svg">
<path d="M4.52528 6.04438C4.52592 5.9369 4.53264 5.82948 4.5373 5.72199C4.54486 5.54988 4.56658 5.37944 4.59547 5.20959C4.62048 5.06345 4.65183 4.91874 4.68776 4.7748C4.72163 4.63908 4.76299 4.50619 4.80875 4.37447C4.86369 4.21638 4.92813 4.0621 4.99806 3.90983C5.06934 3.75376 5.14917 3.60175 5.2372 3.45449C5.34687 3.26997 5.46864 3.09292 5.60173 2.9245C5.73403 2.75859 5.87318 2.59875 6.02475 2.4499C6.21573 2.2617 6.42123 2.08881 6.63934 1.93284C6.83162 1.7958 7.03301 1.67201 7.2421 1.5623C7.50106 1.42729 7.7714 1.31535 8.05 1.22777C8.29595 1.15013 8.54794 1.09312 8.80336 1.05733C8.96701 1.03406 9.13188 1.01299 9.2978 1.00743C9.30855 1.00822 9.31929 1.00562 9.3285 1L9.74214 1C9.79637 1.01532 9.85266 1.01183 9.90786 1.01758C10.1454 1.04214 10.382 1.07013 10.6155 1.12364C10.7267 1.14911 10.8353 1.18078 10.9451 1.21038C11.0636 1.24224 11.1786 1.28328 11.2931 1.32601C11.4379 1.38004 11.5793 1.44235 11.7182 1.51008C11.8843 1.59054 12.0455 1.68067 12.2011 1.77999C12.4177 1.91891 12.6236 2.07388 12.8171 2.2436C12.9857 2.39249 13.1448 2.55187 13.2934 2.72078C13.4021 2.8452 13.5044 2.97502 13.6 3.10974C13.7088 3.26147 13.8087 3.41934 13.8993 3.58259C13.9721 3.71367 14.0391 3.8478 14.1002 3.98499C14.1649 4.13037 14.2222 4.27838 14.2724 4.42902C14.3465 4.65342 14.4081 4.88087 14.4494 5.11412C14.4753 5.26039 14.5012 5.40665 14.5141 5.55434C14.5291 5.72561 14.5399 5.89773 14.535 6.06991C14.531 6.20564 14.4202 6.3086 14.2928 6.30162C14.2756 6.30072 14.2583 6.30162 14.2411 6.30162C11.0995 6.30162 7.95788 6.30162 4.81632 6.30162C4.76732 6.30162 4.7173 6.30692 4.6707 6.28365C4.57181 6.23421 4.52463 6.15206 4.52528 6.04438ZM11.1357 14.2161C11.0755 14.1694 11.0065 14.1627 10.9343 14.1628C9.21395 14.1631 7.49367 14.1632 5.77346 14.1631C5.7455 14.1629 5.71755 14.1644 5.68976 14.1674C5.61007 14.1767 5.54925 14.2191 5.50355 14.2823C5.41565 14.4038 5.40945 14.645 5.62706 14.7454C5.65498 14.7583 5.68937 14.7593 5.71057 14.7861H10.9954C11.017 14.7603 11.0517 14.7603 11.0789 14.745C11.1315 14.7154 11.1785 14.6822 11.214 14.6304C11.2576 14.5667 11.26 14.4984 11.2558 14.4268C11.2506 14.3366 11.2054 14.2702 11.1357 14.2161ZM3.77916 7.82029C4.73628 7.82029 5.69346 7.82029 6.65071 7.82029H13.1139C13.8418 7.82029 14.5697 7.82042 15.2976 7.82068C15.4198 7.82068 15.5571 7.7512 15.6035 7.60093C15.6433 7.47166 15.5776 7.31008 15.4779 7.24939C15.4083 7.20706 15.3335 7.19885 15.255 7.19885C11.4413 7.19919 7.62756 7.19932 3.81387 7.19924C3.78801 7.19924 3.76216 7.19924 3.73631 7.20137C3.6095 7.21242 3.51804 7.27376 3.46918 7.39307C3.42245 7.50708 3.44223 7.61321 3.51623 7.70809C3.58242 7.79211 3.67465 7.82036 3.77916 7.82029ZM14.0732 10.0083C14.0181 9.98998 13.9603 9.98124 13.9023 9.98245C10.5343 9.98245 7.16626 9.98245 3.79823 9.98245C3.78317 9.98245 3.76804 9.982 3.75298 9.98245C3.68706 9.98529 3.62449 10.0024 3.57201 10.0422C3.40074 10.172 3.40487 10.4106 3.57783 10.5455C3.64123 10.5948 3.71485 10.602 3.79112 10.602C5.47729 10.6018 7.16346 10.6018 8.84963 10.602H13.185C13.4369 10.602 13.689 10.602 13.9412 10.602C14.0717 10.602 14.162 10.5433 14.2262 10.4282C14.3122 10.2732 14.2216 10.0601 14.0732 10.0083ZM15.9986 11.6546C15.9936 11.5089 15.8995 11.4059 15.7563 11.3831C15.7222 11.3786 15.6878 11.3768 15.6534 11.3777C12.8694 11.3777 10.0854 11.3777 7.30137 11.3777C7.28624 11.3777 7.27118 11.3777 7.25612 11.3777C7.12563 11.3786 7.03366 11.4358 6.97381 11.5546C6.89909 11.7025 6.97633 11.8879 7.11833 11.9594C7.17902 11.99 7.24165 11.9932 7.30647 11.9932C8.69529 11.9932 10.0841 11.9932 11.4728 11.9932C12.8615 11.9932 14.2503 11.9932 15.6391 11.9932C15.6693 11.9941 15.6995 11.9934 15.7296 11.9912C15.8434 11.979 15.9229 11.9178 15.9764 11.8182C16.0045 11.7657 16.0005 11.7099 15.9986 11.6546ZM8.78688 9.20679C9.13787 9.20679 9.48887 9.20709 9.83987 9.2077C9.96752 9.2077 10.0605 9.15871 10.1194 9.04851C10.2311 8.83981 10.0904 8.6134 9.89028 8.59724C9.86029 8.59485 9.83011 8.5944 9.7998 8.5944C7.0178 8.5944 4.23581 8.5944 1.45382 8.5944C1.43229 8.5944 1.41077 8.59504 1.38918 8.59491C1.26412 8.59388 1.14617 8.68288 1.10674 8.80911C1.06609 8.93928 1.12891 9.10971 1.25998 9.17751C1.31505 9.20595 1.37115 9.20666 1.42906 9.20666H5.6281C6.68105 9.20662 7.73397 9.20666 8.78688 9.20679ZM14.3499 12.8481C14.2831 12.7858 14.2024 12.7654 14.1126 12.7655C13.2555 12.7662 12.3984 12.7664 11.5414 12.7659H8.9959C8.96791 12.7659 8.9398 12.7651 8.91187 12.7675C8.73737 12.7821 8.61954 12.923 8.63066 13.0979C8.63428 13.1561 8.65179 13.2107 8.69116 13.2577C8.76516 13.3461 8.85829 13.3866 8.97308 13.3865C10.683 13.386 12.3928 13.386 14.1027 13.3865C14.1716 13.3869 14.2393 13.3684 14.2985 13.3332C14.482 13.2272 14.4906 12.9793 14.3499 12.8481ZM6.1628 11.9583C6.34545 11.8748 6.38901 11.6554 6.28205 11.5007C6.21742 11.4071 6.12357 11.3772 6.01369 11.3774C5.84789 11.3774 5.682 11.3776 5.51603 11.3779C5.01874 11.3782 4.52144 11.3782 4.02412 11.3779H3.61758C3.08578 11.3779 2.55403 11.3779 2.02232 11.3779C1.96642 11.3779 1.91051 11.3805 1.85945 11.4079C1.7837 11.4484 1.73199 11.5102 1.7097 11.5924C1.67809 11.7087 1.6989 11.8154 1.78861 11.9005C1.8568 11.9651 1.94017 11.9936 2.03531 11.9936C3.35717 11.9929 4.67901 11.9929 6.00083 11.9936C6.05675 11.9939 6.11206 11.9818 6.1628 11.9583ZM0.91239 11.378C0.729416 11.3766 0.605645 11.5228 0.602672 11.6831C0.59944 11.8532 0.737689 11.9922 0.907866 11.9934C1.07126 11.9966 1.21403 11.8673 1.21493 11.6883C1.21577 11.5173 1.08657 11.3793 0.91239 11.378ZM8.14928 13.0813C8.15167 12.8885 7.99733 12.767 7.84279 12.7669C7.68825 12.7668 7.53857 12.8947 7.53708 13.0771C7.53668 13.1584 7.56849 13.2366 7.62554 13.2945C7.68259 13.3525 7.76026 13.3855 7.84156 13.3863C8.00482 13.3868 8.14702 13.2631 8.14928 13.0813ZM2.65818 7.81874C2.81045 7.82346 2.97119 7.69633 2.9644 7.5138C2.97442 7.32637 2.81135 7.19943 2.66031 7.20014C2.49382 7.20085 2.35137 7.34162 2.3535 7.50863C2.35563 7.67565 2.47695 7.81331 2.65818 7.81874ZM2.66076 9.98458C2.47695 9.98749 2.35699 10.1232 2.35408 10.2922C2.3534 10.3326 2.36075 10.3727 2.3757 10.4102C2.39064 10.4477 2.41289 10.4819 2.44115 10.5108C2.46941 10.5396 2.50311 10.5626 2.54031 10.5783C2.57751 10.594 2.61746 10.6022 2.65785 10.6024C2.82725 10.6057 2.9719 10.462 2.96453 10.2986C2.97216 10.1058 2.81678 9.98219 2.66076 9.98471V9.98458ZM0.308465 8.59433C0.132924 8.59491 0.00294824 8.72612 3.97832e-05 8.90108C-0.00273941 9.06699 0.140486 9.22017 0.306527 9.20679C0.467267 9.22198 0.613724 9.07384 0.613078 8.90302C0.612432 8.72631 0.477544 8.59356 0.308465 8.59433ZM4.6579 14.1632C4.49593 14.1562 4.34986 14.3012 4.35361 14.4762C4.35743 14.654 4.51015 14.783 4.66385 14.7806C4.80604 14.7783 4.96607 14.6578 4.96536 14.4665C4.96484 14.2993 4.8231 14.1556 4.6579 14.163V14.1632Z" fill="white"/>
</svg>
