<svg width="56" height="56" viewBox="0 0 56 56" fill="none" xmlns="http://www.w3.org/2000/svg">
<g clip-path="url(#clip0_1999_149320)">
<path d="M7.63717 23.539C7.66305 24.6032 7.77236 25.6637 7.96408 26.7108C7.9881 26.8442 8.03214 26.8082 8.09752 26.7575C8.40043 26.548 8.702 26.3385 9.00757 26.1343C9.82422 25.5899 10.6022 24.9868 11.4655 24.5157C13.4671 23.4296 15.6114 22.9225 17.8706 22.8171C19.2128 22.7535 20.5577 22.8589 21.8737 23.1307C23.6427 23.4737 25.3228 24.1748 26.8109 25.1909C28.0906 26.0783 29.3783 26.9537 30.662 27.8357C32.789 29.2942 35.1775 29.8933 37.7208 29.9707C38.4409 29.9896 39.1614 29.9531 39.8759 29.8613C41.0829 29.7136 42.2652 29.4071 43.392 28.9499C44.4995 28.5015 45.4629 27.813 46.437 27.1418C46.4603 27.1243 46.4796 27.102 46.4937 27.0765C46.5077 27.051 46.5162 27.0227 46.5184 26.9937C46.7231 25.9687 46.8463 24.9291 46.8867 23.8846C46.9605 22.1725 46.7998 20.4584 46.409 18.7899C45.3415 14.281 43.0077 10.5608 39.3661 7.69452C35.9875 5.0351 32.1178 3.67937 27.8251 3.51791C26.7323 3.48086 25.6385 3.53891 24.5558 3.69138C22.4668 3.97643 20.4385 4.60115 18.5511 5.54083C16.5248 6.54449 14.6882 7.8922 13.1228 9.52396C12.0764 10.6062 11.1597 11.8068 10.3913 13.1014C8.56456 16.1865 7.65718 19.5292 7.63717 23.539ZM38.2973 34.9199C38.719 34.9199 39.1406 34.9132 39.561 34.8772C39.9813 34.8412 40.3976 34.7932 40.8126 34.7264C42.3385 34.4972 43.8146 34.0117 45.1787 33.2906C46.1221 32.7849 46.9695 32.1337 47.8475 31.5359C47.9646 31.4504 48.0586 31.3372 48.121 31.2063C48.2295 31.0229 48.283 30.8121 48.2749 30.5992C48.2669 30.3862 48.1977 30.1801 48.0757 30.0054C47.9638 29.8284 47.8043 29.6865 47.6155 29.5959C47.4267 29.5052 47.2163 29.4696 47.0082 29.493C46.6959 29.5103 46.4611 29.6825 46.2195 29.8493C45.3335 30.4617 44.4528 31.0796 43.4587 31.5159C42.0086 32.1589 40.4516 32.5267 38.8671 32.6008C37.7585 32.6532 36.6478 32.5576 35.5645 32.3165C34.1837 32.0259 32.8662 31.4899 31.6748 30.734C30.5299 29.992 29.4063 29.2141 28.2948 28.4215C26.9298 27.42 25.4072 26.6533 23.7899 26.153C22.1723 25.678 20.4945 25.4398 18.8086 25.4458C18.1844 25.4467 17.5607 25.4823 16.9405 25.5526C15.8917 25.6676 14.8558 25.8793 13.8461 26.1851C12.3602 26.6403 10.9592 27.3363 9.69878 28.2453C8.98756 28.7551 8.25632 29.2355 7.53442 29.7292C7.32997 29.8585 7.17122 30.0487 7.0805 30.273C6.98978 30.4973 6.97167 30.7444 7.02869 30.9795C7.07172 31.1634 7.15933 31.3339 7.2838 31.476C7.40828 31.6181 7.56579 31.7273 7.74246 31.7942C7.91912 31.861 8.10952 31.8834 8.29687 31.8593C8.48421 31.8352 8.66275 31.7654 8.81676 31.656C9.35051 31.3024 9.86292 30.9368 10.3887 30.5805C11.1306 30.0801 11.8485 29.541 12.6571 29.1394C14.3771 28.2814 16.2106 27.8677 18.1201 27.7756C19.4421 27.7068 20.7675 27.8127 22.0619 28.0906C23.5285 28.3871 24.9249 28.9614 26.1758 29.7825C27.3767 30.5939 28.5777 31.4172 29.7666 32.2405C30.4819 32.7594 31.2414 33.2144 32.0364 33.6002C34.0028 34.4895 36.1393 34.9398 38.2973 34.9199ZM18.7859 43.0797H18.7993V48.7308C18.7993 50.6683 18.7993 52.6054 18.7993 54.542C18.7994 54.7074 18.8191 54.8723 18.858 55.0331C19.0782 55.9391 20.0896 56.3034 20.7848 55.7176C21.1571 55.404 21.2826 54.9677 21.2826 54.498C21.2826 47.1767 21.2826 39.8549 21.2826 32.5327C21.2919 32.1276 21.2732 31.7223 21.2265 31.3198C21.1944 31.0696 21.0854 30.8355 20.9144 30.65C20.7435 30.4645 20.5192 30.3367 20.2724 30.2843C20.0292 30.2413 19.7787 30.2711 19.5522 30.3698C19.3258 30.4686 19.1335 30.6319 18.9994 30.8394C18.7979 31.1583 18.7846 31.5066 18.7846 31.8722C18.7846 35.6085 18.7851 39.3443 18.7859 43.0797ZM35.6686 44.0684C35.6686 42.1051 35.6686 40.1422 35.6686 38.1798C35.672 38.0837 35.6653 37.9876 35.6486 37.8929C35.5879 37.5913 35.4147 37.3241 35.1641 37.1457C34.9135 36.9672 34.6044 36.8909 34.2995 36.9322C34.0027 36.9686 33.7297 37.1131 33.5328 37.3381C33.3359 37.5631 33.2288 37.8528 33.232 38.1518C33.232 42.0775 33.232 46.0033 33.232 49.929C33.2277 50.0921 33.2562 50.2544 33.3157 50.4062C33.3752 50.5581 33.4646 50.6965 33.5786 50.8132C33.6926 50.9299 33.8288 51.0225 33.9792 51.0857C34.1296 51.1488 34.2912 51.1811 34.4543 51.1807C34.7821 51.1744 35.0943 51.039 35.3229 50.8039C35.5515 50.5688 35.6781 50.253 35.6752 49.925C35.6579 47.9728 35.6686 46.0206 35.6686 44.0684ZM16.4534 37.6034V32.019C16.4578 31.7303 16.4014 31.4438 16.288 31.1783C16.2099 30.9776 16.0743 30.8043 15.8982 30.6804C15.722 30.5565 15.5132 30.4874 15.2979 30.4818C15.1108 30.4659 14.9229 30.4991 14.7526 30.5779C14.5822 30.6568 14.4354 30.7786 14.3264 30.9315C14.0823 31.2722 13.961 31.6857 13.9822 32.1044C13.9822 35.7472 13.9822 39.3905 13.9822 43.0343C13.9822 43.1037 13.9822 43.1677 13.9822 43.2425C13.9974 43.5586 14.103 43.8638 14.2864 44.1218C14.4033 44.2992 14.5667 44.441 14.7587 44.5318C14.9507 44.6227 15.164 44.659 15.3753 44.6369C15.8556 44.5915 16.1505 44.2926 16.3227 43.8589C16.415 43.6199 16.4603 43.3652 16.4561 43.109C16.4543 41.2747 16.4517 39.4395 16.4534 37.6034ZM40.4617 43.6241V38.6282C40.465 38.4664 40.4363 38.3055 40.377 38.1549C40.3178 38.0043 40.2293 37.8669 40.1166 37.7508C40.0039 37.6346 39.8693 37.5419 39.7205 37.4782C39.5718 37.4144 39.4119 37.3807 39.2501 37.3792C39.0866 37.3763 38.9243 37.4063 38.7728 37.4675C38.6212 37.5288 38.4836 37.6199 38.368 37.7354C38.2524 37.851 38.1613 37.9887 38.1001 38.1402C38.0389 38.2918 38.0089 38.4541 38.0117 38.6175C38.0117 41.9526 38.0117 45.2885 38.0117 48.6254C38.0058 48.7993 38.0386 48.9725 38.1078 49.1322C38.1771 49.2919 38.281 49.4342 38.4121 49.5487C38.5901 49.7206 38.818 49.8315 39.0631 49.8656C39.3081 49.8996 39.5577 49.855 39.7758 49.7382C40.2495 49.5114 40.467 49.1071 40.467 48.5867C40.4661 46.932 40.4626 45.2778 40.4617 43.6241ZM26.0783 37.6194C26.0783 36.3811 26.0783 35.1441 26.0783 33.9058C26.0783 33.5322 26.049 33.1625 25.8502 32.8249C25.4085 32.075 24.373 32.0003 23.882 32.6915C23.6524 33.0158 23.6044 33.3934 23.6044 33.7737C23.5991 36.3357 23.5991 38.8973 23.6044 41.4584C23.599 41.7203 23.6405 41.9811 23.7272 42.2283C23.8013 42.4535 23.9442 42.6497 24.1357 42.7895C24.3272 42.9293 24.5576 43.0056 24.7947 43.0076C25.0362 43.0185 25.2753 42.9555 25.4801 42.827C25.6849 42.6985 25.8456 42.5106 25.9409 42.2884C26.0566 41.9834 26.1057 41.6572 26.085 41.3316C26.0864 40.0973 26.0783 38.8577 26.0783 37.6194ZM11.6363 38.4547C11.6363 37.2711 11.6363 36.0862 11.6363 34.9012C11.6363 34.5129 11.6456 34.1233 11.4748 33.7563C11.0945 32.9317 10.0324 32.7582 9.48662 33.4374C9.26535 33.7359 9.15409 34.1017 9.17171 34.4729C9.16237 35.8273 9.17971 37.183 9.15836 38.5374C9.13701 39.7757 9.15169 41.014 9.15836 42.2523C9.1562 42.4774 9.18402 42.7018 9.24109 42.9195C9.28771 43.1106 9.38103 43.2871 9.51269 43.4331C9.64435 43.5792 9.81022 43.6903 9.99541 43.7564C10.1806 43.8226 10.3793 43.8417 10.5737 43.8121C10.7681 43.7824 10.9521 43.705 11.1092 43.5867C11.5015 43.2932 11.6256 42.8635 11.6283 42.4005C11.6443 41.0821 11.6363 39.7651 11.6363 38.4547ZM45.3055 39.6196C45.3055 38.8999 45.3055 38.1798 45.3055 37.4592C45.3091 37.3794 45.3046 37.2994 45.2921 37.2204C45.2339 36.9272 45.0709 36.6653 44.8338 36.4833C44.5966 36.3014 44.3014 36.212 44.0031 36.2316C43.6936 36.2543 43.4043 36.3937 43.1938 36.6216C42.9832 36.8495 42.8671 37.1489 42.8689 37.4592C42.8689 38.8986 42.8689 40.3388 42.8689 41.78C42.8671 42.1038 42.9938 42.4151 43.2212 42.6458C43.4485 42.8764 43.758 43.0075 44.0819 43.0103C44.2435 43.0114 44.4037 42.9802 44.5531 42.9187C44.7026 42.8572 44.8383 42.7665 44.9523 42.652C45.0664 42.5375 45.1564 42.4014 45.2173 42.2516C45.2782 42.1019 45.3086 41.9416 45.3068 41.78L45.3055 39.6196ZM30.8554 37.3512C30.8554 36.9935 30.8554 36.6359 30.8554 36.2837C30.8503 35.9679 30.7231 35.6664 30.5004 35.4424C30.2777 35.2185 29.9769 35.0896 29.6612 35.0827C29.4953 35.0783 29.3303 35.1077 29.1761 35.1691C29.022 35.2305 28.8819 35.3226 28.7645 35.4398C28.647 35.557 28.5546 35.6968 28.4929 35.8508C28.4312 36.0049 28.4015 36.1698 28.4055 36.3357C28.4055 37.0136 28.4055 37.6914 28.4055 38.3693C28.4063 38.4809 28.4207 38.592 28.4482 38.7002C28.5183 38.9939 28.695 39.251 28.9441 39.4217C29.1932 39.5923 29.4968 39.6643 29.7959 39.6236C30.0919 39.5822 30.3628 39.4345 30.558 39.2082C30.7531 38.9818 30.8593 38.6922 30.8568 38.3933L30.8554 37.3512Z" fill="white"/>
</g>
<defs>
<clipPath id="clip0_1999_149320">
<rect width="41.2805" height="52.5" fill="white" transform="translate(7 3.5)"/>
</clipPath>
</defs>
</svg>
