<svg width="56" height="56" viewBox="0 0 56 56" fill="none" xmlns="http://www.w3.org/2000/svg">
<g clip-path="url(#clip0_12296_495016)">
<path fill-rule="evenodd" clip-rule="evenodd" d="M12.3539 0.0322613C13.5674 -0.175283 14.7195 0.640271 14.927 1.85385L18.9717 25.5046C21.7509 23.4847 25.1712 22.2934 28.8697 22.2934C38.1776 22.2934 45.7231 29.8389 45.7231 39.1468C45.7231 48.4546 38.1776 56.0002 28.8697 56.0002C19.5619 56.0002 12.0163 48.4546 12.0163 39.1468C12.0163 35.5172 13.1637 32.1556 15.1155 29.4049L10.5323 2.60544C10.3247 1.39186 11.1403 0.239806 12.3539 0.0322613ZM18.9462 38.5797C17.9686 38.7469 17.0309 38.2502 16.5947 37.4163C16.5157 37.9818 16.4749 38.5595 16.4749 39.1468C16.4749 45.9922 22.0243 51.5416 28.8697 51.5416C35.7152 51.5416 41.2646 45.9922 41.2646 39.1468C41.2646 32.3013 35.7152 26.7519 28.8697 26.7519C25.3156 26.7519 22.1108 28.2478 19.8507 30.6444L20.7678 36.0065C20.9753 37.2201 20.1597 38.3721 18.9462 38.5797ZM29.2264 41.376C30.4576 41.376 31.4557 40.378 31.4557 39.1468C31.4557 37.9156 30.4576 36.9175 29.2264 36.9175C27.9952 36.9175 26.9971 37.9156 26.9971 39.1468C26.9971 40.378 27.9952 41.376 29.2264 41.376ZM32.7933 31.6564C32.7933 32.8876 31.7952 33.8856 30.564 33.8856C29.3328 33.8856 28.3347 32.8876 28.3347 31.6564C28.3347 30.4252 29.3328 29.4271 30.564 29.4271C31.7952 29.4271 32.7933 30.4252 32.7933 31.6564ZM35.9143 39.1468C37.1455 39.1468 38.1436 38.1487 38.1436 36.9175C38.1436 35.6863 37.1455 34.6882 35.9143 34.6882C34.6831 34.6882 33.685 35.6863 33.685 36.9175C33.685 38.1487 34.6831 39.1468 35.9143 39.1468ZM25.8379 34.3315C25.8379 35.5627 24.8398 36.5608 23.6086 36.5608C22.3774 36.5608 21.3793 35.5627 21.3793 34.3315C21.3793 33.1003 22.3774 32.1022 23.6086 32.1022C24.8398 32.1022 25.8379 33.1003 25.8379 34.3315ZM22.1819 43.6053C23.4131 43.6053 24.4112 42.6072 24.4112 41.376C24.4112 40.1448 23.4131 39.1468 22.1819 39.1468C20.9507 39.1468 19.9526 40.1448 19.9526 41.376C19.9526 42.6072 20.9507 43.6053 22.1819 43.6053ZM29.7614 46.6372C29.7614 47.8684 28.7634 48.8664 27.5322 48.8664C26.301 48.8664 25.3029 47.8684 25.3029 46.6372C25.3029 45.406 26.301 44.4079 27.5322 44.4079C28.7634 44.4079 29.7614 45.406 29.7614 46.6372ZM34.5767 46.1913C35.8079 46.1913 36.806 45.1932 36.806 43.962C36.806 42.7308 35.8079 41.7327 34.5767 41.7327C33.3455 41.7327 32.3474 42.7308 32.3474 43.962C32.3474 45.1932 33.3455 46.1913 34.5767 46.1913Z" fill="white"/>
</g>
<defs>
<clipPath id="clip0_12296_495016">
<rect width="56" height="56" fill="white"/>
</clipPath>
</defs>
</svg>
