<svg width="56" height="56" viewBox="0 0 56 56" fill="none" xmlns="http://www.w3.org/2000/svg">
<path fill-rule="evenodd" clip-rule="evenodd" d="M33.1579 3.5C43.8399 3.5 52.5 12.1601 52.5 22.8421C52.5 30.8597 47.6213 37.7382 40.6708 40.6708C37.7382 47.6213 30.8597 52.5 22.8421 52.5C12.1601 52.5 3.5 43.8399 3.5 33.1579C3.5 25.1403 8.37868 18.2618 15.3292 15.3292C18.2618 8.37868 25.1403 3.5 33.1579 3.5ZM8.6579 33.1579C8.6579 40.9917 15.0083 47.3421 22.8421 47.3421C27.251 47.3421 31.19 45.3307 33.7915 42.1754L33.1579 42.1842C22.4759 42.1842 13.8158 33.5241 13.8158 22.8421L13.8246 22.2085C10.6693 24.81 8.6579 28.749 8.6579 33.1579ZM22.8421 18.9737C21.6539 18.9737 20.4998 19.1198 19.3968 19.395C19.1198 20.4998 18.9737 21.6539 18.9737 22.8421C18.9737 30.6759 25.3241 37.0263 33.1579 37.0263C34.3461 37.0263 35.5002 36.8802 36.6032 36.605C36.8802 35.5002 37.0263 34.3461 37.0263 33.1579C37.0263 25.3241 30.6759 18.9737 22.8421 18.9737ZM33.1579 8.6579C28.749 8.6579 24.81 10.6693 22.2085 13.8246L22.8421 13.8158C33.5241 13.8158 42.1842 22.4759 42.1842 33.1579L42.1754 33.7915C45.3307 31.19 47.3421 27.251 47.3421 22.8421C47.3421 15.0083 40.9917 8.6579 33.1579 8.6579Z" fill="white" />
</svg>
