<svg width="56" height="56" viewBox="0 0 56 56" fill="none" xmlns="http://www.w3.org/2000/svg">
<path fill-rule="evenodd" clip-rule="evenodd" d="M40.4783 9.26216L31.7597 22.2068C31.5029 22.5924 31.5702 23.1082 31.9172 23.4151C32.2642 23.7219 32.7844 23.7255 33.1356 23.4234L41.7181 15.9793C41.8208 15.8873 41.9683 15.8648 42.0938 15.9219C42.2193 15.979 42.2992 16.105 42.2974 16.2428V39.5485C42.2973 39.6947 42.2058 39.8252 42.0685 39.8751C41.9311 39.925 41.7772 39.8836 41.6833 39.7715L15.7418 8.7176C14.8973 7.72034 13.6568 7.14478 12.3499 7.14478H11.4433C8.98934 7.14478 7 9.13411 7 11.5881V44.4118C7 46.8658 8.98934 48.8551 11.4433 48.8551C12.9883 48.8551 14.4228 48.0539 15.232 46.7377L23.9506 33.7931C24.2074 33.4075 24.1402 32.8916 23.7932 32.5848C23.4462 32.278 22.9259 32.2744 22.5748 32.5765L13.9923 40.0206C13.8895 40.1126 13.7421 40.1351 13.6166 40.078C13.4911 40.0209 13.4112 39.8949 13.413 39.7571V16.4456C13.413 16.2994 13.5045 16.1689 13.6419 16.119C13.7793 16.0691 13.9332 16.1105 14.027 16.2226L39.9657 47.2823C40.8102 48.2796 42.0507 48.8551 43.3575 48.8551H44.2641C45.4431 48.8559 46.574 48.3881 47.4079 47.5547C48.2418 46.7214 48.7103 45.5908 48.7103 44.4118V11.5881C48.7103 9.13411 46.721 7.14478 44.267 7.14478C42.722 7.14478 41.2876 7.94604 40.4783 9.26216Z" fill="white"/>
</svg>
