<svg width="56" height="56" viewBox="0 0 56 56" fill="none" xmlns="http://www.w3.org/2000/svg">
<g clip-path="url(#clip0_2002_149391)">
<path d="M22.8806 23.9202C22.239 23.9049 21.6131 24.1201 21.1166 24.5268C20.6383 24.9312 20.295 25.5503 20.0866 26.3839C19.8664 27.2052 19.6459 28.2103 19.4251 29.3994C19.3752 29.6537 19.3506 29.9124 19.3516 30.1716C19.3516 31.2993 19.9396 31.8634 21.1156 31.8641C21.7526 31.8813 22.374 31.6653 22.8629 31.2565C23.3529 30.8527 23.7021 30.2321 23.9106 29.3945C24.1928 28.242 24.4074 27.2368 24.5544 26.379C24.6037 26.1183 24.6283 25.8535 24.6279 25.5882C24.6279 24.4762 24.0455 23.9202 22.8806 23.9202Z" fill="white"/>
<path d="M37.2805 24.3065C37.0721 24.1105 36.7167 24.0125 36.2143 24.0125H34.0073L33.3086 27.3043H35.4234C35.9049 27.3147 36.3764 27.1663 36.7651 26.8819C37.1653 26.588 37.4409 26.1548 37.5373 25.6677C37.572 25.4857 37.5907 25.3011 37.5932 25.1159C37.5932 24.7592 37.4883 24.4897 37.2805 24.3065Z" fill="white"/>
<path d="M28 3.5C14.4691 3.5 3.5 14.4691 3.5 28C3.5 41.5309 14.4691 52.5 28 52.5C41.5309 52.5 52.5 41.5309 52.5 28C52.5 14.4691 41.5309 3.5 28 3.5ZM27.9755 26.334C27.7913 27.4251 27.5704 28.4854 27.313 29.5151C26.8844 31.1948 26.1429 32.4512 25.0884 33.2842C24.0339 34.1061 22.624 34.517 20.8587 34.517C19.4005 34.517 18.2052 34.1737 17.2729 33.487C16.3537 32.7886 15.8941 31.7955 15.8941 30.5078C15.8995 30.175 15.9303 29.8432 15.9862 29.5151C16.1456 28.6318 16.3723 27.5714 16.6663 26.334C17.5006 22.9628 19.652 21.2772 23.1206 21.2772C23.9902 21.2627 24.8538 21.4251 25.6588 21.7545C26.3727 22.035 26.9868 22.5219 27.4228 23.1529C27.852 23.7657 28.0666 24.5011 28.0666 25.3589C28.0608 25.6858 28.0304 26.0117 27.9755 26.334ZM40.936 25.7039C40.6296 27.1131 40.0106 28.1552 39.0789 28.8301C38.161 29.5043 36.8987 29.8414 35.2922 29.8414H32.8098L31.9641 33.8682C31.9413 34.0003 31.8691 34.1187 31.7622 34.1995C31.6635 34.2806 31.5401 34.3258 31.4124 34.3279H28.9114C28.853 34.3311 28.7946 34.3213 28.7405 34.2991C28.6865 34.2769 28.638 34.2428 28.5988 34.1995C28.5377 34.1005 28.518 33.9816 28.5439 33.8682L31.0811 21.9122C31.104 21.7802 31.1766 21.662 31.284 21.582C31.382 21.5001 31.5052 21.4544 31.6329 21.4526H36.526C37.8869 21.4526 38.978 21.7345 39.7992 22.2984C40.6329 22.8628 41.0497 23.6795 41.0497 24.7484C41.0467 25.0701 41.0086 25.3905 40.936 25.7039Z" fill="white"/>
</g>
<defs>
<clipPath id="clip0_2002_149391">
<rect width="49" height="49" fill="white" transform="translate(3.5 3.5)"/>
</clipPath>
</defs>
</svg>
