<svg width="56" height="56" viewBox="0 0 56 56" fill="none" xmlns="http://www.w3.org/2000/svg">
<path fill-rule="evenodd" clip-rule="evenodd" d="M17.9699 26.9134C17.9699 30.1792 15.3224 32.8267 12.0566 32.8267H11.0924V34.8974C11.0924 35.3824 10.6992 35.7755 10.2142 35.7755H4.37814C3.89316 35.7755 3.5 35.3824 3.5 34.8974V21.8781C3.5 21.3932 3.89316 21 4.37814 21H12.0566C15.3224 21 17.9699 23.6475 17.9699 26.9134ZM27.0657 21C22.985 21 19.677 24.308 19.677 28.3886C19.677 32.4693 22.985 35.7773 27.0657 35.7773C31.1463 35.7773 34.4543 32.4693 34.4543 28.3886C34.4543 26.4291 33.6759 24.5497 32.2902 23.1641C30.9046 21.7785 29.0253 21 27.0657 21ZM52.356 35.0256L43.6326 21.3091C43.3709 20.8964 42.9406 20.8964 42.6789 21.3091L33.9573 35.0256C33.6956 35.4383 33.88 35.7755 34.37 35.7755H51.9327C52.4315 35.7755 52.6159 35.4383 52.3542 35.0256H52.356Z" fill="white" />
</svg>
