<svg width="56" height="56" viewBox="0 0 56 56" fill="none" xmlns="http://www.w3.org/2000/svg">
<path fill-rule="evenodd" clip-rule="evenodd" d="M40.476 20.0637C39.572 19.5212 38.3967 19.5212 37.4022 20.0637L30.3506 24.2223L25.559 26.9345L18.5074 31.0932C17.6033 31.6356 16.428 31.6356 15.4336 31.0932L9.82841 27.8386C8.92435 27.2961 8.29151 26.3017 8.29151 25.2168V18.798C8.29151 17.7131 8.83395 16.7186 9.82841 16.1762L15.3432 13.012C16.2472 12.4696 17.4225 12.4696 18.417 13.012L23.9317 16.1762C24.8358 16.7186 25.4686 17.7131 25.4686 18.798V22.9566L30.2601 20.1541V15.9954C30.2601 14.9105 29.7177 13.9161 28.7232 13.3736L18.5074 7.40683C17.6033 6.86439 16.428 6.86439 15.4336 7.40683L5.0369 13.3736C4.04244 13.9161 3.5 14.9105 3.5 15.9954V28.0194C3.5 29.1042 4.04244 30.0987 5.0369 30.6411L15.4336 36.6079C16.3376 37.1504 17.5129 37.1504 18.5074 36.6079L25.559 32.5397L30.3506 29.7371L37.4022 25.6688C38.3063 25.1264 39.4815 25.1264 40.476 25.6688L45.9908 28.833C46.8948 29.3755 47.5277 30.3699 47.5277 31.4548V37.8736C47.5277 38.9585 46.9852 39.9529 45.9908 40.4954L40.476 43.75C39.572 44.2924 38.3967 44.2924 37.4022 43.75L31.8875 40.5858C30.9834 40.0434 30.3506 39.0489 30.3506 37.964V33.8053L25.559 36.6079V40.7666C25.559 41.8515 26.1015 42.8459 27.0959 43.3884L37.4926 49.3552C38.3967 49.8976 39.572 49.8976 40.5664 49.3552L50.9631 43.3884C51.8672 42.8459 52.5 41.8515 52.5 40.7666V28.7426C52.5 27.6577 51.9576 26.6633 50.9631 26.1208L40.476 20.0637Z" fill="white"/>
</svg>
